G75*
%MOIN*%
%OFA0B0*%
%FSLAX25Y25*%
%IPPOS*%
%LPD*%
%AMOC8*
5,1,8,0,0,1.08239X$1,22.5*
%
%ADD10C,0.00000*%
%ADD11R,0.04252X0.04134*%
%ADD12R,0.04134X0.04252*%
%ADD13R,0.05512X0.08661*%
%ADD14R,0.11024X0.06299*%
%ADD15R,0.20437X0.19000*%
%ADD16R,0.04331X0.03937*%
%ADD17C,0.01181*%
D10*
X0003500Y0050642D02*
X0003500Y0174343D01*
X0928421Y0174343D01*
X0928421Y0050642D01*
X0003500Y0050642D01*
D11*
X0043500Y0079697D03*
X0043500Y0086587D03*
X0093500Y0086587D03*
X0093500Y0079697D03*
X0143500Y0079697D03*
X0143500Y0086587D03*
X0193500Y0086587D03*
X0193500Y0079697D03*
X0243500Y0079697D03*
X0243500Y0086587D03*
X0293500Y0086587D03*
X0293500Y0079697D03*
X0343500Y0079697D03*
X0343500Y0086587D03*
X0393500Y0086587D03*
X0393500Y0079697D03*
X0568500Y0079697D03*
X0568500Y0086587D03*
X0618500Y0086587D03*
X0618500Y0079697D03*
X0668500Y0079697D03*
X0668500Y0086587D03*
X0718500Y0086587D03*
X0718500Y0079697D03*
X0768500Y0079697D03*
X0768500Y0086587D03*
X0818500Y0086587D03*
X0818500Y0079697D03*
X0868500Y0079697D03*
X0868500Y0086587D03*
X0918500Y0086587D03*
X0918500Y0079697D03*
X0918500Y0114697D03*
X0888500Y0114697D03*
X0868500Y0114697D03*
X0868500Y0121587D03*
X0888500Y0121587D03*
X0918500Y0121587D03*
X0838500Y0121587D03*
X0818500Y0121587D03*
X0788500Y0121587D03*
X0768500Y0121587D03*
X0738500Y0121587D03*
X0718500Y0121587D03*
X0718500Y0114697D03*
X0738500Y0114697D03*
X0768500Y0114697D03*
X0788500Y0114697D03*
X0818500Y0114697D03*
X0838500Y0114697D03*
X0688500Y0114697D03*
X0668500Y0114697D03*
X0638500Y0114697D03*
X0618500Y0114697D03*
X0588500Y0114697D03*
X0568500Y0114697D03*
X0538500Y0114697D03*
X0538500Y0121587D03*
X0568500Y0121587D03*
X0588500Y0121587D03*
X0618500Y0121587D03*
X0638500Y0121587D03*
X0668500Y0121587D03*
X0688500Y0121587D03*
X0492000Y0127697D03*
X0492000Y0134587D03*
X0492000Y0142197D03*
X0492000Y0149087D03*
X0393500Y0121587D03*
X0363500Y0121587D03*
X0343500Y0121587D03*
X0313500Y0121587D03*
X0293500Y0121587D03*
X0263500Y0121587D03*
X0243500Y0121587D03*
X0243500Y0114697D03*
X0263500Y0114697D03*
X0293500Y0114697D03*
X0313500Y0114697D03*
X0343500Y0114697D03*
X0363500Y0114697D03*
X0393500Y0114697D03*
X0213500Y0114697D03*
X0193500Y0114697D03*
X0163500Y0114697D03*
X0143500Y0114697D03*
X0113500Y0114697D03*
X0093500Y0114697D03*
X0093500Y0121587D03*
X0113500Y0121587D03*
X0143500Y0121587D03*
X0163500Y0121587D03*
X0193500Y0121587D03*
X0213500Y0121587D03*
X0063500Y0121587D03*
X0043500Y0121587D03*
X0013500Y0121587D03*
X0013500Y0114697D03*
X0043500Y0114697D03*
X0063500Y0114697D03*
D12*
X0445055Y0100642D03*
X0451945Y0100642D03*
X0462555Y0100642D03*
X0469445Y0100642D03*
X0480055Y0100642D03*
X0486945Y0100642D03*
D13*
X0578500Y0104441D03*
X0578500Y0091843D03*
X0678500Y0091843D03*
X0678500Y0104441D03*
X0778500Y0104441D03*
X0778500Y0091843D03*
X0878500Y0091843D03*
X0878500Y0104441D03*
X0353500Y0104441D03*
X0353500Y0091843D03*
X0253500Y0091843D03*
X0253500Y0104441D03*
X0153500Y0104441D03*
X0153500Y0091843D03*
X0053500Y0091843D03*
X0053500Y0104441D03*
D14*
X0501344Y0129166D03*
X0501344Y0147118D03*
D15*
X0529252Y0138142D03*
D16*
X0466000Y0116489D03*
X0456000Y0116489D03*
X0446000Y0116489D03*
X0446000Y0109796D03*
X0456000Y0109796D03*
X0466000Y0109796D03*
D17*
X0464622Y0131067D02*
X0467378Y0131067D01*
X0467378Y0128311D01*
X0464622Y0128311D01*
X0464622Y0131067D01*
X0464622Y0129491D02*
X0467378Y0129491D01*
X0467378Y0130671D02*
X0464622Y0130671D01*
X0464622Y0137973D02*
X0467378Y0137973D01*
X0467378Y0135217D01*
X0464622Y0135217D01*
X0464622Y0137973D01*
X0464622Y0136397D02*
X0467378Y0136397D01*
X0467378Y0137577D02*
X0464622Y0137577D01*
X0459878Y0135811D02*
X0457122Y0135811D01*
X0457122Y0138567D01*
X0459878Y0138567D01*
X0459878Y0135811D01*
X0459878Y0136991D02*
X0457122Y0136991D01*
X0457122Y0138171D02*
X0459878Y0138171D01*
X0472122Y0135811D02*
X0474878Y0135811D01*
X0472122Y0135811D02*
X0472122Y0138567D01*
X0474878Y0138567D01*
X0474878Y0135811D01*
X0474878Y0136991D02*
X0472122Y0136991D01*
X0472122Y0138171D02*
X0474878Y0138171D01*
X0474878Y0142717D02*
X0472122Y0142717D01*
X0472122Y0145473D01*
X0474878Y0145473D01*
X0474878Y0142717D01*
X0474878Y0143897D02*
X0472122Y0143897D01*
X0472122Y0145077D02*
X0474878Y0145077D01*
X0459878Y0142717D02*
X0457122Y0142717D01*
X0457122Y0145473D01*
X0459878Y0145473D01*
X0459878Y0142717D01*
X0459878Y0143897D02*
X0457122Y0143897D01*
X0457122Y0145077D02*
X0459878Y0145077D01*
M02*
