G75*
%MOIN*%
%OFA0B0*%
%FSLAX25Y25*%
%IPPOS*%
%LPD*%
%AMOC8*
5,1,8,0,0,1.08239X$1,22.5*
%
%ADD10C,0.00000*%
%ADD11C,0.06400*%
%ADD12OC8,0.07400*%
%ADD13OC8,0.10400*%
%ADD14C,0.16605*%
D10*
X0003500Y0050642D02*
X0003500Y0174343D01*
X0928421Y0174343D01*
X0928421Y0050642D01*
X0003500Y0050642D01*
D11*
X0445500Y0070642D02*
X0451500Y0070642D01*
X0463000Y0070642D02*
X0469000Y0070642D01*
X0480500Y0070642D02*
X0486500Y0070642D01*
X0486500Y0090642D02*
X0480500Y0090642D01*
X0469000Y0090642D02*
X0463000Y0090642D01*
X0451500Y0090642D02*
X0445500Y0090642D01*
D12*
X0383500Y0088142D03*
X0373500Y0088142D03*
X0373500Y0078142D03*
X0383500Y0078142D03*
X0333500Y0078142D03*
X0323500Y0078142D03*
X0283500Y0078142D03*
X0273500Y0078142D03*
X0233500Y0078142D03*
X0223500Y0078142D03*
X0183500Y0078142D03*
X0173500Y0078142D03*
X0133500Y0078142D03*
X0123500Y0078142D03*
X0123500Y0088142D03*
X0133500Y0088142D03*
X0173500Y0088142D03*
X0183500Y0088142D03*
X0223500Y0088142D03*
X0233500Y0088142D03*
X0273500Y0088142D03*
X0283500Y0088142D03*
X0323500Y0088142D03*
X0333500Y0088142D03*
X0333500Y0098142D03*
X0323500Y0098142D03*
X0283500Y0098142D03*
X0273500Y0098142D03*
X0233500Y0098142D03*
X0223500Y0098142D03*
X0183500Y0098142D03*
X0173500Y0098142D03*
X0133500Y0098142D03*
X0123500Y0098142D03*
X0083500Y0098142D03*
X0073500Y0098142D03*
X0033500Y0098142D03*
X0023500Y0098142D03*
X0023500Y0088142D03*
X0033500Y0088142D03*
X0073500Y0088142D03*
X0083500Y0088142D03*
X0083500Y0078142D03*
X0073500Y0078142D03*
X0033500Y0078142D03*
X0023500Y0078142D03*
X0023500Y0108142D03*
X0033500Y0108142D03*
X0073500Y0108142D03*
X0083500Y0108142D03*
X0083500Y0118142D03*
X0073500Y0118142D03*
X0033500Y0118142D03*
X0023500Y0118142D03*
X0023500Y0128142D03*
X0033500Y0128142D03*
X0073500Y0128142D03*
X0083500Y0128142D03*
X0123500Y0128142D03*
X0133500Y0128142D03*
X0173500Y0128142D03*
X0183500Y0128142D03*
X0223500Y0128142D03*
X0233500Y0128142D03*
X0273500Y0128142D03*
X0283500Y0128142D03*
X0323500Y0128142D03*
X0333500Y0128142D03*
X0373500Y0128142D03*
X0383500Y0128142D03*
X0383500Y0118142D03*
X0373500Y0118142D03*
X0373500Y0108142D03*
X0383500Y0108142D03*
X0383500Y0098142D03*
X0373500Y0098142D03*
X0333500Y0108142D03*
X0323500Y0108142D03*
X0283500Y0108142D03*
X0273500Y0108142D03*
X0233500Y0108142D03*
X0223500Y0108142D03*
X0183500Y0108142D03*
X0173500Y0108142D03*
X0133500Y0108142D03*
X0123500Y0108142D03*
X0123500Y0118142D03*
X0133500Y0118142D03*
X0173500Y0118142D03*
X0183500Y0118142D03*
X0223500Y0118142D03*
X0233500Y0118142D03*
X0273500Y0118142D03*
X0283500Y0118142D03*
X0323500Y0118142D03*
X0333500Y0118142D03*
X0333500Y0138142D03*
X0323500Y0138142D03*
X0283500Y0138142D03*
X0273500Y0138142D03*
X0233500Y0138142D03*
X0223500Y0138142D03*
X0183500Y0138142D03*
X0173500Y0138142D03*
X0133500Y0138142D03*
X0123500Y0138142D03*
X0123500Y0148142D03*
X0133500Y0148142D03*
X0173500Y0148142D03*
X0183500Y0148142D03*
X0223500Y0148142D03*
X0233500Y0148142D03*
X0273500Y0148142D03*
X0283500Y0148142D03*
X0323500Y0148142D03*
X0333500Y0148142D03*
X0373500Y0148142D03*
X0383500Y0148142D03*
X0418500Y0148142D03*
X0428500Y0148142D03*
X0428500Y0138142D03*
X0418500Y0138142D03*
X0383500Y0138142D03*
X0373500Y0138142D03*
X0476000Y0110642D03*
X0486000Y0110642D03*
X0548500Y0108142D03*
X0558500Y0108142D03*
X0558500Y0118142D03*
X0548500Y0118142D03*
X0548500Y0128142D03*
X0558500Y0128142D03*
X0598500Y0128142D03*
X0608500Y0128142D03*
X0648500Y0128142D03*
X0658500Y0128142D03*
X0698500Y0128142D03*
X0708500Y0128142D03*
X0748500Y0128142D03*
X0758500Y0128142D03*
X0798500Y0128142D03*
X0808500Y0128142D03*
X0848500Y0128142D03*
X0858500Y0128142D03*
X0898500Y0128142D03*
X0908500Y0128142D03*
X0908500Y0118142D03*
X0898500Y0118142D03*
X0858500Y0118142D03*
X0848500Y0118142D03*
X0848500Y0108142D03*
X0858500Y0108142D03*
X0898500Y0108142D03*
X0908500Y0108142D03*
X0908500Y0098142D03*
X0898500Y0098142D03*
X0858500Y0098142D03*
X0848500Y0098142D03*
X0808500Y0098142D03*
X0798500Y0098142D03*
X0758500Y0098142D03*
X0748500Y0098142D03*
X0708500Y0098142D03*
X0698500Y0098142D03*
X0658500Y0098142D03*
X0648500Y0098142D03*
X0608500Y0098142D03*
X0598500Y0098142D03*
X0558500Y0098142D03*
X0548500Y0098142D03*
X0548500Y0088142D03*
X0558500Y0088142D03*
X0558500Y0078142D03*
X0548500Y0078142D03*
X0598500Y0078142D03*
X0608500Y0078142D03*
X0648500Y0078142D03*
X0658500Y0078142D03*
X0698500Y0078142D03*
X0708500Y0078142D03*
X0748500Y0078142D03*
X0758500Y0078142D03*
X0798500Y0078142D03*
X0808500Y0078142D03*
X0808500Y0088142D03*
X0798500Y0088142D03*
X0758500Y0088142D03*
X0748500Y0088142D03*
X0708500Y0088142D03*
X0698500Y0088142D03*
X0658500Y0088142D03*
X0648500Y0088142D03*
X0608500Y0088142D03*
X0598500Y0088142D03*
X0598500Y0108142D03*
X0608500Y0108142D03*
X0648500Y0108142D03*
X0658500Y0108142D03*
X0698500Y0108142D03*
X0708500Y0108142D03*
X0748500Y0108142D03*
X0758500Y0108142D03*
X0798500Y0108142D03*
X0808500Y0108142D03*
X0808500Y0118142D03*
X0798500Y0118142D03*
X0758500Y0118142D03*
X0748500Y0118142D03*
X0708500Y0118142D03*
X0698500Y0118142D03*
X0658500Y0118142D03*
X0648500Y0118142D03*
X0608500Y0118142D03*
X0598500Y0118142D03*
X0598500Y0138142D03*
X0608500Y0138142D03*
X0648500Y0138142D03*
X0658500Y0138142D03*
X0698500Y0138142D03*
X0708500Y0138142D03*
X0748500Y0138142D03*
X0758500Y0138142D03*
X0798500Y0138142D03*
X0808500Y0138142D03*
X0808500Y0148142D03*
X0798500Y0148142D03*
X0758500Y0148142D03*
X0748500Y0148142D03*
X0708500Y0148142D03*
X0698500Y0148142D03*
X0658500Y0148142D03*
X0648500Y0148142D03*
X0608500Y0148142D03*
X0598500Y0148142D03*
X0558500Y0148142D03*
X0548500Y0148142D03*
X0548500Y0138142D03*
X0558500Y0138142D03*
X0848500Y0138142D03*
X0858500Y0138142D03*
X0898500Y0138142D03*
X0908500Y0138142D03*
X0908500Y0148142D03*
X0898500Y0148142D03*
X0858500Y0148142D03*
X0848500Y0148142D03*
X0848500Y0088142D03*
X0858500Y0088142D03*
X0898500Y0088142D03*
X0908500Y0088142D03*
X0908500Y0078142D03*
X0898500Y0078142D03*
X0858500Y0078142D03*
X0848500Y0078142D03*
X0083500Y0138142D03*
X0073500Y0138142D03*
X0033500Y0138142D03*
X0023500Y0138142D03*
X0023500Y0148142D03*
X0033500Y0148142D03*
X0073500Y0148142D03*
X0083500Y0148142D03*
D13*
X0408500Y0095642D03*
X0428500Y0095642D03*
X0503500Y0095642D03*
X0523500Y0095642D03*
X0523500Y0075642D03*
X0503500Y0075642D03*
X0428500Y0075642D03*
X0408500Y0075642D03*
D14*
X0353500Y0063142D03*
X0253500Y0063142D03*
X0153500Y0063142D03*
X0053500Y0063142D03*
X0053500Y0163142D03*
X0153500Y0163142D03*
X0253500Y0163142D03*
X0353500Y0163142D03*
X0466000Y0163142D03*
X0578500Y0163142D03*
X0678500Y0163142D03*
X0778500Y0163142D03*
X0878500Y0163142D03*
X0878500Y0063142D03*
X0778500Y0063142D03*
X0678500Y0063142D03*
X0578500Y0063142D03*
M02*
