G75*
%MOIN*%
%OFA0B0*%
%FSLAX25Y25*%
%IPPOS*%
%LPD*%
%AMOC8*
5,1,8,0,0,1.08239X$1,22.5*
%
%ADD10C,0.00000*%
%ADD11C,0.06000*%
%ADD12OC8,0.07000*%
%ADD13OC8,0.10000*%
%ADD14C,0.05000*%
%ADD15C,0.02578*%
%ADD16C,0.02775*%
%ADD17C,0.10000*%
%ADD18C,0.03200*%
%ADD19C,0.16205*%
D10*
X0003500Y0050642D02*
X0003500Y0174343D01*
X0928421Y0174343D01*
X0928421Y0050642D01*
X0003500Y0050642D01*
D11*
X0445500Y0070642D02*
X0451500Y0070642D01*
X0463000Y0070642D02*
X0469000Y0070642D01*
X0480500Y0070642D02*
X0486500Y0070642D01*
X0486500Y0090642D02*
X0480500Y0090642D01*
X0469000Y0090642D02*
X0463000Y0090642D01*
X0451500Y0090642D02*
X0445500Y0090642D01*
D12*
X0383500Y0088142D03*
X0373500Y0088142D03*
X0373500Y0078142D03*
X0383500Y0078142D03*
X0333500Y0078142D03*
X0323500Y0078142D03*
X0283500Y0078142D03*
X0273500Y0078142D03*
X0233500Y0078142D03*
X0223500Y0078142D03*
X0183500Y0078142D03*
X0173500Y0078142D03*
X0133500Y0078142D03*
X0123500Y0078142D03*
X0123500Y0088142D03*
X0133500Y0088142D03*
X0173500Y0088142D03*
X0183500Y0088142D03*
X0223500Y0088142D03*
X0233500Y0088142D03*
X0273500Y0088142D03*
X0283500Y0088142D03*
X0323500Y0088142D03*
X0333500Y0088142D03*
X0333500Y0098142D03*
X0323500Y0098142D03*
X0283500Y0098142D03*
X0273500Y0098142D03*
X0233500Y0098142D03*
X0223500Y0098142D03*
X0183500Y0098142D03*
X0173500Y0098142D03*
X0133500Y0098142D03*
X0123500Y0098142D03*
X0083500Y0098142D03*
X0073500Y0098142D03*
X0033500Y0098142D03*
X0023500Y0098142D03*
X0023500Y0088142D03*
X0033500Y0088142D03*
X0073500Y0088142D03*
X0083500Y0088142D03*
X0083500Y0078142D03*
X0073500Y0078142D03*
X0033500Y0078142D03*
X0023500Y0078142D03*
X0023500Y0108142D03*
X0033500Y0108142D03*
X0073500Y0108142D03*
X0083500Y0108142D03*
X0083500Y0118142D03*
X0073500Y0118142D03*
X0033500Y0118142D03*
X0023500Y0118142D03*
X0023500Y0128142D03*
X0033500Y0128142D03*
X0073500Y0128142D03*
X0083500Y0128142D03*
X0123500Y0128142D03*
X0133500Y0128142D03*
X0173500Y0128142D03*
X0183500Y0128142D03*
X0223500Y0128142D03*
X0233500Y0128142D03*
X0273500Y0128142D03*
X0283500Y0128142D03*
X0323500Y0128142D03*
X0333500Y0128142D03*
X0373500Y0128142D03*
X0383500Y0128142D03*
X0383500Y0118142D03*
X0373500Y0118142D03*
X0373500Y0108142D03*
X0383500Y0108142D03*
X0383500Y0098142D03*
X0373500Y0098142D03*
X0333500Y0108142D03*
X0323500Y0108142D03*
X0283500Y0108142D03*
X0273500Y0108142D03*
X0233500Y0108142D03*
X0223500Y0108142D03*
X0183500Y0108142D03*
X0173500Y0108142D03*
X0133500Y0108142D03*
X0123500Y0108142D03*
X0123500Y0118142D03*
X0133500Y0118142D03*
X0173500Y0118142D03*
X0183500Y0118142D03*
X0223500Y0118142D03*
X0233500Y0118142D03*
X0273500Y0118142D03*
X0283500Y0118142D03*
X0323500Y0118142D03*
X0333500Y0118142D03*
X0333500Y0138142D03*
X0323500Y0138142D03*
X0283500Y0138142D03*
X0273500Y0138142D03*
X0233500Y0138142D03*
X0223500Y0138142D03*
X0183500Y0138142D03*
X0173500Y0138142D03*
X0133500Y0138142D03*
X0123500Y0138142D03*
X0123500Y0148142D03*
X0133500Y0148142D03*
X0173500Y0148142D03*
X0183500Y0148142D03*
X0223500Y0148142D03*
X0233500Y0148142D03*
X0273500Y0148142D03*
X0283500Y0148142D03*
X0323500Y0148142D03*
X0333500Y0148142D03*
X0373500Y0148142D03*
X0383500Y0148142D03*
X0418500Y0148142D03*
X0428500Y0148142D03*
X0428500Y0138142D03*
X0418500Y0138142D03*
X0383500Y0138142D03*
X0373500Y0138142D03*
X0476000Y0110642D03*
X0486000Y0110642D03*
X0548500Y0108142D03*
X0558500Y0108142D03*
X0558500Y0118142D03*
X0548500Y0118142D03*
X0548500Y0128142D03*
X0558500Y0128142D03*
X0598500Y0128142D03*
X0608500Y0128142D03*
X0648500Y0128142D03*
X0658500Y0128142D03*
X0698500Y0128142D03*
X0708500Y0128142D03*
X0748500Y0128142D03*
X0758500Y0128142D03*
X0798500Y0128142D03*
X0808500Y0128142D03*
X0848500Y0128142D03*
X0858500Y0128142D03*
X0898500Y0128142D03*
X0908500Y0128142D03*
X0908500Y0118142D03*
X0898500Y0118142D03*
X0858500Y0118142D03*
X0848500Y0118142D03*
X0848500Y0108142D03*
X0858500Y0108142D03*
X0898500Y0108142D03*
X0908500Y0108142D03*
X0908500Y0098142D03*
X0898500Y0098142D03*
X0858500Y0098142D03*
X0848500Y0098142D03*
X0808500Y0098142D03*
X0798500Y0098142D03*
X0758500Y0098142D03*
X0748500Y0098142D03*
X0708500Y0098142D03*
X0698500Y0098142D03*
X0658500Y0098142D03*
X0648500Y0098142D03*
X0608500Y0098142D03*
X0598500Y0098142D03*
X0558500Y0098142D03*
X0548500Y0098142D03*
X0548500Y0088142D03*
X0558500Y0088142D03*
X0558500Y0078142D03*
X0548500Y0078142D03*
X0598500Y0078142D03*
X0608500Y0078142D03*
X0648500Y0078142D03*
X0658500Y0078142D03*
X0698500Y0078142D03*
X0708500Y0078142D03*
X0748500Y0078142D03*
X0758500Y0078142D03*
X0798500Y0078142D03*
X0808500Y0078142D03*
X0808500Y0088142D03*
X0798500Y0088142D03*
X0758500Y0088142D03*
X0748500Y0088142D03*
X0708500Y0088142D03*
X0698500Y0088142D03*
X0658500Y0088142D03*
X0648500Y0088142D03*
X0608500Y0088142D03*
X0598500Y0088142D03*
X0598500Y0108142D03*
X0608500Y0108142D03*
X0648500Y0108142D03*
X0658500Y0108142D03*
X0698500Y0108142D03*
X0708500Y0108142D03*
X0748500Y0108142D03*
X0758500Y0108142D03*
X0798500Y0108142D03*
X0808500Y0108142D03*
X0808500Y0118142D03*
X0798500Y0118142D03*
X0758500Y0118142D03*
X0748500Y0118142D03*
X0708500Y0118142D03*
X0698500Y0118142D03*
X0658500Y0118142D03*
X0648500Y0118142D03*
X0608500Y0118142D03*
X0598500Y0118142D03*
X0598500Y0138142D03*
X0608500Y0138142D03*
X0648500Y0138142D03*
X0658500Y0138142D03*
X0698500Y0138142D03*
X0708500Y0138142D03*
X0748500Y0138142D03*
X0758500Y0138142D03*
X0798500Y0138142D03*
X0808500Y0138142D03*
X0808500Y0148142D03*
X0798500Y0148142D03*
X0758500Y0148142D03*
X0748500Y0148142D03*
X0708500Y0148142D03*
X0698500Y0148142D03*
X0658500Y0148142D03*
X0648500Y0148142D03*
X0608500Y0148142D03*
X0598500Y0148142D03*
X0558500Y0148142D03*
X0548500Y0148142D03*
X0548500Y0138142D03*
X0558500Y0138142D03*
X0848500Y0138142D03*
X0858500Y0138142D03*
X0898500Y0138142D03*
X0908500Y0138142D03*
X0908500Y0148142D03*
X0898500Y0148142D03*
X0858500Y0148142D03*
X0848500Y0148142D03*
X0848500Y0088142D03*
X0858500Y0088142D03*
X0898500Y0088142D03*
X0908500Y0088142D03*
X0908500Y0078142D03*
X0898500Y0078142D03*
X0858500Y0078142D03*
X0848500Y0078142D03*
X0083500Y0138142D03*
X0073500Y0138142D03*
X0033500Y0138142D03*
X0023500Y0138142D03*
X0023500Y0148142D03*
X0033500Y0148142D03*
X0073500Y0148142D03*
X0083500Y0148142D03*
D13*
X0408500Y0095642D03*
X0428500Y0095642D03*
X0503500Y0095642D03*
X0523500Y0095642D03*
X0523500Y0075642D03*
X0503500Y0075642D03*
X0428500Y0075642D03*
X0408500Y0075642D03*
D14*
X0399100Y0083742D02*
X0393500Y0078142D01*
X0383500Y0078142D01*
X0373500Y0078142D01*
X0333500Y0078142D01*
X0323500Y0078142D01*
X0283500Y0078142D01*
X0273500Y0078142D01*
X0233500Y0078142D01*
X0223500Y0078142D01*
X0183500Y0078142D01*
X0173500Y0078142D01*
X0133500Y0078142D01*
X0123500Y0078142D01*
X0083500Y0078142D01*
X0073500Y0078142D01*
X0053500Y0078142D01*
X0033500Y0078142D01*
X0023500Y0078142D01*
X0027979Y0085542D02*
X0026979Y0086542D01*
X0021000Y0086542D01*
X0021000Y0109742D01*
X0026979Y0109742D01*
X0027979Y0110742D01*
X0029021Y0110742D01*
X0030021Y0109742D01*
X0036979Y0109742D01*
X0037979Y0110742D01*
X0069021Y0110742D01*
X0070021Y0109742D01*
X0076979Y0109742D01*
X0077979Y0110742D01*
X0079021Y0110742D01*
X0080021Y0109742D01*
X0086979Y0109742D01*
X0087979Y0110742D01*
X0119021Y0110742D01*
X0120021Y0109742D01*
X0126979Y0109742D01*
X0127979Y0110742D01*
X0129021Y0110742D01*
X0130021Y0109742D01*
X0136979Y0109742D01*
X0137979Y0110742D01*
X0169021Y0110742D01*
X0170021Y0109742D01*
X0176979Y0109742D01*
X0177979Y0110742D01*
X0179021Y0110742D01*
X0180021Y0109742D01*
X0186979Y0109742D01*
X0187979Y0110742D01*
X0219021Y0110742D01*
X0220021Y0109742D01*
X0226979Y0109742D01*
X0227979Y0110742D01*
X0229021Y0110742D01*
X0230021Y0109742D01*
X0236979Y0109742D01*
X0237979Y0110742D01*
X0269021Y0110742D01*
X0270021Y0109742D01*
X0276979Y0109742D01*
X0277979Y0110742D01*
X0279021Y0110742D01*
X0280021Y0109742D01*
X0286979Y0109742D01*
X0287979Y0110742D01*
X0319021Y0110742D01*
X0320021Y0109742D01*
X0326979Y0109742D01*
X0327979Y0110742D01*
X0329021Y0110742D01*
X0330021Y0109742D01*
X0336979Y0109742D01*
X0337979Y0110742D01*
X0369021Y0110742D01*
X0370021Y0109742D01*
X0376979Y0109742D01*
X0377979Y0110742D01*
X0379021Y0110742D01*
X0380021Y0109742D01*
X0386979Y0109742D01*
X0387979Y0110742D01*
X0467600Y0110742D01*
X0467600Y0107163D01*
X0472521Y0102242D01*
X0479479Y0102242D01*
X0481000Y0103763D01*
X0482521Y0102242D01*
X0489479Y0102242D01*
X0494400Y0107163D01*
X0494400Y0110742D01*
X0544021Y0110742D01*
X0545021Y0109742D01*
X0551979Y0109742D01*
X0552979Y0110742D01*
X0554021Y0110742D01*
X0555021Y0109742D01*
X0561979Y0109742D01*
X0562979Y0110742D01*
X0594021Y0110742D01*
X0595021Y0109742D01*
X0601979Y0109742D01*
X0602979Y0110742D01*
X0604021Y0110742D01*
X0605021Y0109742D01*
X0611979Y0109742D01*
X0612979Y0110742D01*
X0644021Y0110742D01*
X0645021Y0109742D01*
X0651979Y0109742D01*
X0652979Y0110742D01*
X0654021Y0110742D01*
X0655021Y0109742D01*
X0661979Y0109742D01*
X0662979Y0110742D01*
X0694021Y0110742D01*
X0695021Y0109742D01*
X0701979Y0109742D01*
X0702979Y0110742D01*
X0704021Y0110742D01*
X0705021Y0109742D01*
X0711979Y0109742D01*
X0712979Y0110742D01*
X0744021Y0110742D01*
X0745021Y0109742D01*
X0751979Y0109742D01*
X0752979Y0110742D01*
X0754021Y0110742D01*
X0755021Y0109742D01*
X0761979Y0109742D01*
X0762979Y0110742D01*
X0794021Y0110742D01*
X0795021Y0109742D01*
X0801979Y0109742D01*
X0802979Y0110742D01*
X0804021Y0110742D01*
X0805021Y0109742D01*
X0811979Y0109742D01*
X0812979Y0110742D01*
X0844021Y0110742D01*
X0845021Y0109742D01*
X0851979Y0109742D01*
X0852979Y0110742D01*
X0854021Y0110742D01*
X0855021Y0109742D01*
X0861979Y0109742D01*
X0862979Y0110742D01*
X0894021Y0110742D01*
X0895021Y0109742D01*
X0901979Y0109742D01*
X0902979Y0110742D01*
X0904021Y0110742D01*
X0905021Y0109742D01*
X0911000Y0109742D01*
X0911000Y0086542D01*
X0905021Y0086542D01*
X0904021Y0085542D01*
X0902979Y0085542D01*
X0901979Y0086542D01*
X0895021Y0086542D01*
X0894021Y0085542D01*
X0862979Y0085542D01*
X0861979Y0086542D01*
X0855021Y0086542D01*
X0854021Y0085542D01*
X0852979Y0085542D01*
X0851979Y0086542D01*
X0845021Y0086542D01*
X0844021Y0085542D01*
X0812979Y0085542D01*
X0811979Y0086542D01*
X0805021Y0086542D01*
X0804021Y0085542D01*
X0802979Y0085542D01*
X0801979Y0086542D01*
X0795021Y0086542D01*
X0794021Y0085542D01*
X0762979Y0085542D01*
X0761979Y0086542D01*
X0755021Y0086542D01*
X0754021Y0085542D01*
X0752979Y0085542D01*
X0751979Y0086542D01*
X0745021Y0086542D01*
X0744021Y0085542D01*
X0712979Y0085542D01*
X0711979Y0086542D01*
X0705021Y0086542D01*
X0704021Y0085542D01*
X0702979Y0085542D01*
X0701979Y0086542D01*
X0695021Y0086542D01*
X0694021Y0085542D01*
X0662979Y0085542D01*
X0661979Y0086542D01*
X0655021Y0086542D01*
X0654021Y0085542D01*
X0652979Y0085542D01*
X0651979Y0086542D01*
X0645021Y0086542D01*
X0644021Y0085542D01*
X0612979Y0085542D01*
X0611979Y0086542D01*
X0605021Y0086542D01*
X0604021Y0085542D01*
X0602979Y0085542D01*
X0601979Y0086542D01*
X0595021Y0086542D01*
X0594021Y0085542D01*
X0562979Y0085542D01*
X0561979Y0086542D01*
X0555021Y0086542D01*
X0554021Y0085542D01*
X0552979Y0085542D01*
X0551979Y0086542D01*
X0545021Y0086542D01*
X0541621Y0083142D01*
X0518965Y0083142D01*
X0517692Y0084415D01*
X0514173Y0087934D01*
X0512092Y0090015D01*
X0511938Y0090079D01*
X0513400Y0091541D01*
X0513400Y0099743D01*
X0507601Y0105542D01*
X0499399Y0105542D01*
X0493600Y0099743D01*
X0493600Y0094145D01*
X0493197Y0095117D01*
X0490975Y0097339D01*
X0488071Y0098542D01*
X0478929Y0098542D01*
X0476025Y0097339D01*
X0474750Y0096064D01*
X0473475Y0097339D01*
X0470571Y0098542D01*
X0461429Y0098542D01*
X0458525Y0097339D01*
X0457250Y0096064D01*
X0455975Y0097339D01*
X0453071Y0098542D01*
X0443929Y0098542D01*
X0441025Y0097339D01*
X0438803Y0095117D01*
X0438400Y0094145D01*
X0438400Y0099743D01*
X0432601Y0105542D01*
X0424399Y0105542D01*
X0418600Y0099743D01*
X0418600Y0091541D01*
X0418999Y0091142D01*
X0418001Y0091142D01*
X0418400Y0091541D01*
X0418400Y0099743D01*
X0412601Y0105542D01*
X0404399Y0105542D01*
X0398600Y0099743D01*
X0398600Y0091541D01*
X0398999Y0091142D01*
X0397628Y0091142D01*
X0394908Y0090015D01*
X0392827Y0087934D01*
X0390435Y0085542D01*
X0387979Y0085542D01*
X0386979Y0086542D01*
X0380021Y0086542D01*
X0379021Y0085542D01*
X0377979Y0085542D01*
X0376979Y0086542D01*
X0370021Y0086542D01*
X0369021Y0085542D01*
X0337979Y0085542D01*
X0336979Y0086542D01*
X0330021Y0086542D01*
X0329021Y0085542D01*
X0327979Y0085542D01*
X0326979Y0086542D01*
X0320021Y0086542D01*
X0319021Y0085542D01*
X0287979Y0085542D01*
X0286979Y0086542D01*
X0280021Y0086542D01*
X0279021Y0085542D01*
X0277979Y0085542D01*
X0276979Y0086542D01*
X0270021Y0086542D01*
X0269021Y0085542D01*
X0237979Y0085542D01*
X0236979Y0086542D01*
X0230021Y0086542D01*
X0229021Y0085542D01*
X0227979Y0085542D01*
X0226979Y0086542D01*
X0220021Y0086542D01*
X0219021Y0085542D01*
X0187979Y0085542D01*
X0186979Y0086542D01*
X0180021Y0086542D01*
X0179021Y0085542D01*
X0177979Y0085542D01*
X0176979Y0086542D01*
X0170021Y0086542D01*
X0169021Y0085542D01*
X0137979Y0085542D01*
X0136979Y0086542D01*
X0130021Y0086542D01*
X0129021Y0085542D01*
X0127979Y0085542D01*
X0126979Y0086542D01*
X0120021Y0086542D01*
X0119021Y0085542D01*
X0087979Y0085542D01*
X0086979Y0086542D01*
X0080021Y0086542D01*
X0079021Y0085542D01*
X0077979Y0085542D01*
X0076979Y0086542D01*
X0070021Y0086542D01*
X0069021Y0085542D01*
X0037979Y0085542D01*
X0036979Y0086542D01*
X0030021Y0086542D01*
X0029021Y0085542D01*
X0027979Y0085542D01*
X0021000Y0088048D02*
X0392941Y0088048D01*
X0399100Y0083742D02*
X0418500Y0083742D01*
X0507900Y0083742D01*
X0513500Y0078142D01*
X0513500Y0068142D01*
X0516000Y0065642D01*
X0536000Y0065642D01*
X0548500Y0078142D01*
X0558500Y0078142D01*
X0598500Y0078142D01*
X0608500Y0078142D01*
X0648500Y0078142D01*
X0658500Y0078142D01*
X0698500Y0078142D01*
X0708500Y0078142D01*
X0748500Y0078142D01*
X0758500Y0078142D01*
X0798500Y0078142D01*
X0808500Y0078142D01*
X0848500Y0078142D01*
X0858500Y0078142D01*
X0878500Y0078142D01*
X0898500Y0078142D01*
X0908500Y0078142D01*
X0911000Y0088048D02*
X0529907Y0088048D01*
X0527601Y0085742D02*
X0519399Y0085742D01*
X0513600Y0091541D01*
X0513600Y0099743D01*
X0519399Y0105542D01*
X0527601Y0105542D01*
X0533400Y0099743D01*
X0533400Y0091541D01*
X0527601Y0085742D01*
X0517093Y0088048D02*
X0514059Y0088048D01*
X0514173Y0087934D02*
X0514173Y0087934D01*
X0513600Y0093047D02*
X0513400Y0093047D01*
X0533400Y0093047D02*
X0911000Y0093047D01*
X0911000Y0098045D02*
X0533400Y0098045D01*
X0513600Y0098045D02*
X0513400Y0098045D01*
X0510099Y0103044D02*
X0516901Y0103044D01*
X0530099Y0103044D02*
X0911000Y0103044D01*
X0911000Y0108042D02*
X0494400Y0108042D01*
X0496901Y0103044D02*
X0490281Y0103044D01*
X0481719Y0103044D02*
X0480281Y0103044D01*
X0471719Y0103044D02*
X0435099Y0103044D01*
X0421901Y0103044D02*
X0415099Y0103044D01*
X0401901Y0103044D02*
X0021000Y0103044D01*
X0021000Y0108042D02*
X0467600Y0108042D01*
X0461000Y0118142D02*
X0476000Y0118142D01*
X0548500Y0118142D01*
X0558500Y0118142D01*
X0598500Y0118142D01*
X0608500Y0118142D01*
X0648500Y0118142D01*
X0658500Y0118142D01*
X0678500Y0118142D01*
X0698500Y0118142D01*
X0708500Y0118142D01*
X0748500Y0118142D01*
X0758500Y0118142D01*
X0778500Y0118142D01*
X0798500Y0118142D01*
X0808500Y0118142D01*
X0848500Y0118142D01*
X0858500Y0118142D01*
X0898500Y0118142D01*
X0908500Y0118142D01*
X0908500Y0128142D02*
X0898500Y0128142D01*
X0858500Y0128142D01*
X0848500Y0128142D01*
X0808500Y0128142D01*
X0798500Y0128142D01*
X0758500Y0128142D01*
X0748500Y0128142D01*
X0708500Y0128142D01*
X0698500Y0128142D01*
X0658500Y0128142D01*
X0648500Y0128142D01*
X0608500Y0128142D01*
X0598500Y0128142D01*
X0578500Y0128142D01*
X0558500Y0128142D01*
X0548500Y0128142D01*
X0483500Y0128142D01*
X0383500Y0128142D01*
X0373500Y0128142D01*
X0353500Y0128142D01*
X0333500Y0128142D01*
X0323500Y0128142D01*
X0283500Y0128142D01*
X0273500Y0128142D01*
X0233500Y0128142D01*
X0223500Y0128142D01*
X0183500Y0128142D01*
X0173500Y0128142D01*
X0133500Y0128142D01*
X0123500Y0128142D01*
X0083500Y0128142D01*
X0073500Y0128142D01*
X0033500Y0128142D01*
X0023500Y0128142D01*
X0023500Y0118142D02*
X0033500Y0118142D01*
X0073500Y0118142D01*
X0083500Y0118142D01*
X0123500Y0118142D01*
X0133500Y0118142D01*
X0153500Y0118142D01*
X0173500Y0118142D01*
X0183500Y0118142D01*
X0223500Y0118142D01*
X0233500Y0118142D01*
X0253500Y0118142D01*
X0273500Y0118142D01*
X0283500Y0118142D01*
X0323500Y0118142D01*
X0333500Y0118142D01*
X0373500Y0118142D01*
X0383500Y0118142D01*
X0461000Y0118142D01*
X0460229Y0098045D02*
X0454271Y0098045D01*
X0442729Y0098045D02*
X0438400Y0098045D01*
X0418600Y0098045D02*
X0418400Y0098045D01*
X0398600Y0098045D02*
X0021000Y0098045D01*
X0021000Y0093047D02*
X0398600Y0093047D01*
X0418400Y0093047D02*
X0418600Y0093047D01*
X0471771Y0098045D02*
X0477729Y0098045D01*
X0489271Y0098045D02*
X0493600Y0098045D01*
X0548500Y0138142D02*
X0428500Y0138142D01*
X0418500Y0138142D02*
X0383500Y0138142D01*
X0373500Y0138142D01*
X0333500Y0138142D01*
X0323500Y0138142D01*
X0283500Y0138142D01*
X0273500Y0138142D01*
X0233500Y0138142D01*
X0223500Y0138142D01*
X0183500Y0138142D01*
X0173500Y0138142D01*
X0133500Y0138142D01*
X0123500Y0138142D01*
X0083500Y0138142D01*
X0073500Y0138142D01*
X0033500Y0138142D01*
X0023500Y0138142D01*
X0023500Y0148142D02*
X0033500Y0148142D01*
X0073500Y0148142D01*
X0083500Y0148142D01*
X0123500Y0148142D01*
X0133500Y0148142D01*
X0173500Y0148142D01*
X0183500Y0148142D01*
X0223500Y0148142D01*
X0233500Y0148142D01*
X0273500Y0148142D01*
X0283500Y0148142D01*
X0323500Y0148142D01*
X0333500Y0148142D01*
X0373500Y0148142D01*
X0383500Y0148142D01*
X0418500Y0148142D01*
X0428500Y0148142D02*
X0548500Y0148142D01*
X0558500Y0148142D01*
X0598500Y0148142D01*
X0608500Y0148142D01*
X0648500Y0148142D01*
X0658500Y0148142D01*
X0698500Y0148142D01*
X0708500Y0148142D01*
X0748500Y0148142D01*
X0758500Y0148142D01*
X0798500Y0148142D01*
X0808500Y0148142D01*
X0848500Y0148142D01*
X0858500Y0148142D01*
X0898500Y0148142D01*
X0908500Y0148142D01*
X0908500Y0138142D02*
X0898500Y0138142D01*
X0858500Y0138142D01*
X0848500Y0138142D01*
X0808500Y0138142D01*
X0798500Y0138142D01*
X0758500Y0138142D01*
X0748500Y0138142D01*
X0708500Y0138142D01*
X0698500Y0138142D01*
X0658500Y0138142D01*
X0648500Y0138142D01*
X0608500Y0138142D01*
X0598500Y0138142D01*
X0558500Y0138142D01*
X0548500Y0138142D01*
D15*
X0578500Y0128142D03*
X0678500Y0118142D03*
X0778500Y0118142D03*
X0878500Y0110642D03*
X0778500Y0085642D03*
X0678500Y0085642D03*
X0578500Y0085642D03*
X0456000Y0098142D03*
X0418500Y0083742D03*
X0353500Y0085642D03*
X0253500Y0085642D03*
X0153500Y0085642D03*
X0053500Y0078142D03*
X0053500Y0110642D03*
X0153500Y0118142D03*
X0253500Y0118142D03*
X0353500Y0128142D03*
X0461000Y0118142D03*
X0476000Y0118142D03*
X0878500Y0078142D03*
D16*
X0491500Y0103142D03*
X0474500Y0096642D03*
X0483500Y0128142D03*
D17*
X0523500Y0083142D02*
X0523500Y0075642D01*
D18*
X0608500Y0148142D02*
X0613500Y0148142D01*
D19*
X0578500Y0163142D03*
X0678500Y0163142D03*
X0778500Y0163142D03*
X0878500Y0163142D03*
X0466000Y0163142D03*
X0353500Y0163142D03*
X0253500Y0163142D03*
X0153500Y0163142D03*
X0053500Y0163142D03*
X0053500Y0063142D03*
X0153500Y0063142D03*
X0253500Y0063142D03*
X0353500Y0063142D03*
X0578500Y0063142D03*
X0678500Y0063142D03*
X0778500Y0063142D03*
X0878500Y0063142D03*
M02*
