G75*
%MOIN*%
%OFA0B0*%
%FSLAX25Y25*%
%IPPOS*%
%LPD*%
%AMOC8*
5,1,8,0,0,1.08239X$1,22.5*
%
%ADD10C,0.00000*%
%ADD11C,0.01600*%
%ADD12C,0.00600*%
%ADD13C,0.00400*%
%ADD14C,0.03200*%
%ADD15R,0.04652X0.04534*%
%ADD16R,0.04534X0.04652*%
%ADD17R,0.05912X0.09061*%
%ADD18C,0.06400*%
%ADD19R,0.11424X0.06699*%
%ADD20R,0.20837X0.19400*%
%ADD21OC8,0.07400*%
%ADD22R,0.04731X0.04337*%
%ADD23OC8,0.10400*%
%ADD24C,0.01301*%
%ADD25C,0.16605*%
D10*
X0003500Y0050642D02*
X0003500Y0174343D01*
X0928421Y0174343D01*
X0928421Y0050642D01*
X0003500Y0050642D01*
D11*
X0107477Y0096609D02*
X0107586Y0096543D01*
X0107692Y0096474D01*
X0107796Y0096401D01*
X0107898Y0096325D01*
X0107997Y0096247D01*
X0108094Y0096165D01*
X0108188Y0096080D01*
X0108280Y0095993D01*
X0108369Y0095902D01*
X0108456Y0095810D01*
X0108539Y0095714D01*
X0108619Y0095616D01*
X0108697Y0095515D01*
X0108771Y0095413D01*
X0108842Y0095308D01*
X0108910Y0095201D01*
X0108975Y0095091D01*
X0109036Y0094980D01*
X0109094Y0094868D01*
X0109148Y0094753D01*
X0109199Y0094637D01*
X0109246Y0094519D01*
X0109290Y0094400D01*
X0109330Y0094280D01*
X0109366Y0094158D01*
X0109399Y0094036D01*
X0109427Y0093912D01*
X0109452Y0093788D01*
X0109474Y0093663D01*
X0109491Y0093537D01*
X0109505Y0093411D01*
X0109514Y0093284D01*
X0109520Y0093158D01*
X0109522Y0093031D01*
X0109520Y0092905D01*
X0109514Y0092779D01*
X0109505Y0092654D01*
X0109491Y0092529D01*
X0109474Y0092404D01*
X0109452Y0092280D01*
X0109427Y0092156D01*
X0109398Y0092034D01*
X0109366Y0091912D01*
X0109330Y0091791D01*
X0109290Y0091672D01*
X0109246Y0091554D01*
X0109199Y0091437D01*
X0109148Y0091322D01*
X0109093Y0091208D01*
X0109035Y0091097D01*
X0108974Y0090986D01*
X0108910Y0090878D01*
X0108842Y0090772D01*
X0108770Y0090668D01*
X0108696Y0090567D01*
X0108619Y0090468D01*
X0108538Y0090371D01*
X0108455Y0090276D01*
X0108369Y0090185D01*
X0108279Y0090095D01*
X0108188Y0090009D01*
X0108093Y0089926D01*
X0107996Y0089845D01*
X0107897Y0089768D01*
X0107796Y0089694D01*
X0107692Y0089622D01*
X0107586Y0089554D01*
X0107478Y0089490D01*
X0107367Y0089429D01*
X0107256Y0089371D01*
X0107142Y0089316D01*
X0107027Y0089265D01*
X0106910Y0089218D01*
X0106792Y0089174D01*
X0106673Y0089134D01*
X0106552Y0089098D01*
X0106430Y0089066D01*
X0106308Y0089037D01*
X0106184Y0089012D01*
X0106060Y0088990D01*
X0105935Y0088973D01*
X0105810Y0088959D01*
X0105685Y0088950D01*
X0105559Y0088944D01*
X0105433Y0088942D01*
X0107478Y0096609D02*
X0101856Y0099675D01*
X0103900Y0107342D02*
X0104083Y0107340D01*
X0104265Y0107333D01*
X0104448Y0107322D01*
X0104630Y0107307D01*
X0104812Y0107288D01*
X0104993Y0107264D01*
X0105173Y0107236D01*
X0105353Y0107203D01*
X0105532Y0107166D01*
X0105710Y0107125D01*
X0105887Y0107080D01*
X0106063Y0107031D01*
X0106238Y0106977D01*
X0106411Y0106919D01*
X0106583Y0106857D01*
X0106753Y0106791D01*
X0106922Y0106721D01*
X0107089Y0106647D01*
X0107254Y0106569D01*
X0107418Y0106487D01*
X0107579Y0106402D01*
X0107738Y0106312D01*
X0107895Y0106219D01*
X0108050Y0106122D01*
X0108203Y0106021D01*
X0108353Y0105916D01*
X0108500Y0105809D01*
X0101856Y0099675D02*
X0101747Y0099741D01*
X0101641Y0099810D01*
X0101537Y0099883D01*
X0101435Y0099959D01*
X0101336Y0100037D01*
X0101239Y0100119D01*
X0101144Y0100204D01*
X0101053Y0100291D01*
X0100964Y0100382D01*
X0100877Y0100474D01*
X0100794Y0100570D01*
X0100714Y0100668D01*
X0100636Y0100769D01*
X0100562Y0100871D01*
X0100491Y0100976D01*
X0100423Y0101083D01*
X0100358Y0101193D01*
X0100297Y0101304D01*
X0100239Y0101416D01*
X0100185Y0101531D01*
X0100134Y0101647D01*
X0100087Y0101765D01*
X0100043Y0101884D01*
X0100003Y0102004D01*
X0099967Y0102126D01*
X0099934Y0102248D01*
X0099906Y0102372D01*
X0099881Y0102496D01*
X0099859Y0102621D01*
X0099842Y0102747D01*
X0099828Y0102873D01*
X0099819Y0103000D01*
X0099813Y0103126D01*
X0099811Y0103253D01*
X0099813Y0103379D01*
X0099819Y0103505D01*
X0099828Y0103630D01*
X0099842Y0103755D01*
X0099859Y0103880D01*
X0099881Y0104004D01*
X0099906Y0104128D01*
X0099935Y0104250D01*
X0099967Y0104372D01*
X0100003Y0104493D01*
X0100043Y0104612D01*
X0100087Y0104730D01*
X0100134Y0104847D01*
X0100185Y0104962D01*
X0100240Y0105076D01*
X0100298Y0105187D01*
X0100359Y0105298D01*
X0100423Y0105406D01*
X0100491Y0105512D01*
X0100563Y0105616D01*
X0100637Y0105717D01*
X0100714Y0105816D01*
X0100795Y0105913D01*
X0100878Y0106008D01*
X0100964Y0106099D01*
X0101054Y0106189D01*
X0101145Y0106275D01*
X0101240Y0106358D01*
X0101337Y0106439D01*
X0101436Y0106516D01*
X0101537Y0106590D01*
X0101641Y0106662D01*
X0101747Y0106730D01*
X0101856Y0106794D01*
X0101966Y0106855D01*
X0102077Y0106913D01*
X0102191Y0106968D01*
X0102306Y0107019D01*
X0102423Y0107066D01*
X0102541Y0107110D01*
X0102660Y0107150D01*
X0102781Y0107186D01*
X0102903Y0107219D01*
X0103025Y0107247D01*
X0103149Y0107272D01*
X0103273Y0107294D01*
X0103398Y0107311D01*
X0103523Y0107325D01*
X0103648Y0107334D01*
X0103774Y0107340D01*
X0103900Y0107342D01*
X0099300Y0091498D02*
X0099447Y0091353D01*
X0099597Y0091211D01*
X0099752Y0091073D01*
X0099909Y0090939D01*
X0100069Y0090809D01*
X0100233Y0090683D01*
X0100399Y0090560D01*
X0100569Y0090442D01*
X0100741Y0090327D01*
X0100916Y0090217D01*
X0101093Y0090111D01*
X0101273Y0090010D01*
X0101455Y0089912D01*
X0101640Y0089819D01*
X0101827Y0089731D01*
X0102016Y0089647D01*
X0102206Y0089567D01*
X0102399Y0089492D01*
X0102593Y0089422D01*
X0102789Y0089357D01*
X0102987Y0089296D01*
X0103186Y0089239D01*
X0103386Y0089188D01*
X0103587Y0089142D01*
X0103790Y0089100D01*
X0103993Y0089063D01*
X0104197Y0089031D01*
X0104402Y0089004D01*
X0104608Y0088982D01*
X0104813Y0088964D01*
X0105020Y0088952D01*
X0105226Y0088944D01*
X0105433Y0088942D01*
X0199300Y0094053D02*
X0199300Y0107342D01*
X0209522Y0107342D02*
X0209522Y0094053D01*
X0209520Y0093911D01*
X0209514Y0093769D01*
X0209504Y0093627D01*
X0209490Y0093486D01*
X0209473Y0093345D01*
X0209451Y0093204D01*
X0209426Y0093065D01*
X0209396Y0092926D01*
X0209363Y0092787D01*
X0209326Y0092650D01*
X0209285Y0092514D01*
X0209240Y0092379D01*
X0209192Y0092246D01*
X0209140Y0092114D01*
X0209084Y0091983D01*
X0209025Y0091854D01*
X0208962Y0091726D01*
X0208895Y0091601D01*
X0208825Y0091477D01*
X0208752Y0091355D01*
X0208675Y0091236D01*
X0208595Y0091118D01*
X0208512Y0091003D01*
X0208426Y0090890D01*
X0208336Y0090780D01*
X0208244Y0090672D01*
X0208148Y0090567D01*
X0208050Y0090464D01*
X0207949Y0090364D01*
X0207845Y0090267D01*
X0207738Y0090173D01*
X0207629Y0090082D01*
X0207518Y0089995D01*
X0207404Y0089910D01*
X0207287Y0089828D01*
X0207169Y0089750D01*
X0207048Y0089675D01*
X0206925Y0089603D01*
X0206801Y0089535D01*
X0206674Y0089470D01*
X0206546Y0089409D01*
X0206416Y0089352D01*
X0206285Y0089298D01*
X0206152Y0089248D01*
X0206017Y0089201D01*
X0205882Y0089158D01*
X0205745Y0089119D01*
X0205608Y0089084D01*
X0205469Y0089053D01*
X0205330Y0089025D01*
X0205189Y0089002D01*
X0205049Y0088982D01*
X0204908Y0088966D01*
X0204766Y0088954D01*
X0204624Y0088946D01*
X0204482Y0088942D01*
X0204340Y0088942D01*
X0204198Y0088946D01*
X0204056Y0088954D01*
X0203914Y0088966D01*
X0203773Y0088982D01*
X0203633Y0089002D01*
X0203492Y0089025D01*
X0203353Y0089053D01*
X0203214Y0089084D01*
X0203077Y0089119D01*
X0202940Y0089158D01*
X0202805Y0089201D01*
X0202670Y0089248D01*
X0202537Y0089298D01*
X0202406Y0089352D01*
X0202276Y0089409D01*
X0202148Y0089470D01*
X0202021Y0089535D01*
X0201897Y0089603D01*
X0201774Y0089675D01*
X0201653Y0089750D01*
X0201535Y0089828D01*
X0201418Y0089910D01*
X0201304Y0089995D01*
X0201193Y0090082D01*
X0201084Y0090173D01*
X0200977Y0090267D01*
X0200873Y0090364D01*
X0200772Y0090464D01*
X0200674Y0090567D01*
X0200578Y0090672D01*
X0200486Y0090780D01*
X0200396Y0090890D01*
X0200310Y0091003D01*
X0200227Y0091118D01*
X0200147Y0091236D01*
X0200070Y0091355D01*
X0199997Y0091477D01*
X0199927Y0091601D01*
X0199860Y0091726D01*
X0199797Y0091854D01*
X0199738Y0091983D01*
X0199682Y0092114D01*
X0199630Y0092246D01*
X0199582Y0092379D01*
X0199537Y0092514D01*
X0199496Y0092650D01*
X0199459Y0092787D01*
X0199426Y0092926D01*
X0199396Y0093065D01*
X0199371Y0093204D01*
X0199349Y0093345D01*
X0199332Y0093486D01*
X0199318Y0093627D01*
X0199308Y0093769D01*
X0199302Y0093911D01*
X0199300Y0094053D01*
X0299300Y0088942D02*
X0309522Y0088942D01*
X0299300Y0088942D02*
X0309522Y0107342D01*
X0299300Y0107342D01*
X0624300Y0107342D02*
X0630433Y0088942D01*
X0636567Y0107342D01*
X0724300Y0107342D02*
X0724300Y0094053D01*
X0724302Y0093911D01*
X0724308Y0093769D01*
X0724318Y0093627D01*
X0724332Y0093486D01*
X0724349Y0093345D01*
X0724371Y0093204D01*
X0724396Y0093065D01*
X0724426Y0092926D01*
X0724459Y0092787D01*
X0724496Y0092650D01*
X0724537Y0092514D01*
X0724582Y0092379D01*
X0724630Y0092246D01*
X0724682Y0092114D01*
X0724738Y0091983D01*
X0724797Y0091854D01*
X0724860Y0091726D01*
X0724927Y0091601D01*
X0724997Y0091477D01*
X0725070Y0091355D01*
X0725147Y0091236D01*
X0725227Y0091118D01*
X0725310Y0091003D01*
X0725396Y0090890D01*
X0725486Y0090780D01*
X0725578Y0090672D01*
X0725674Y0090567D01*
X0725772Y0090464D01*
X0725873Y0090364D01*
X0725977Y0090267D01*
X0726084Y0090173D01*
X0726193Y0090082D01*
X0726304Y0089995D01*
X0726418Y0089910D01*
X0726535Y0089828D01*
X0726653Y0089750D01*
X0726774Y0089675D01*
X0726897Y0089603D01*
X0727021Y0089535D01*
X0727148Y0089470D01*
X0727276Y0089409D01*
X0727406Y0089352D01*
X0727537Y0089298D01*
X0727670Y0089248D01*
X0727805Y0089201D01*
X0727940Y0089158D01*
X0728077Y0089119D01*
X0728214Y0089084D01*
X0728353Y0089053D01*
X0728492Y0089025D01*
X0728633Y0089002D01*
X0728773Y0088982D01*
X0728914Y0088966D01*
X0729056Y0088954D01*
X0729198Y0088946D01*
X0729340Y0088942D01*
X0729482Y0088942D01*
X0729624Y0088946D01*
X0729766Y0088954D01*
X0729908Y0088966D01*
X0730049Y0088982D01*
X0730189Y0089002D01*
X0730330Y0089025D01*
X0730469Y0089053D01*
X0730608Y0089084D01*
X0730745Y0089119D01*
X0730882Y0089158D01*
X0731017Y0089201D01*
X0731152Y0089248D01*
X0731285Y0089298D01*
X0731416Y0089352D01*
X0731546Y0089409D01*
X0731674Y0089470D01*
X0731801Y0089535D01*
X0731925Y0089603D01*
X0732048Y0089675D01*
X0732169Y0089750D01*
X0732287Y0089828D01*
X0732404Y0089910D01*
X0732518Y0089995D01*
X0732629Y0090082D01*
X0732738Y0090173D01*
X0732845Y0090267D01*
X0732949Y0090364D01*
X0733050Y0090464D01*
X0733148Y0090567D01*
X0733244Y0090672D01*
X0733336Y0090780D01*
X0733426Y0090890D01*
X0733512Y0091003D01*
X0733595Y0091118D01*
X0733675Y0091236D01*
X0733752Y0091355D01*
X0733825Y0091477D01*
X0733895Y0091601D01*
X0733962Y0091726D01*
X0734025Y0091854D01*
X0734084Y0091983D01*
X0734140Y0092114D01*
X0734192Y0092246D01*
X0734240Y0092379D01*
X0734285Y0092514D01*
X0734326Y0092650D01*
X0734363Y0092787D01*
X0734396Y0092926D01*
X0734426Y0093065D01*
X0734451Y0093204D01*
X0734473Y0093345D01*
X0734490Y0093486D01*
X0734504Y0093627D01*
X0734514Y0093769D01*
X0734520Y0093911D01*
X0734522Y0094053D01*
X0734522Y0107342D01*
X0824300Y0107342D02*
X0824300Y0088942D01*
X0834522Y0088942D02*
X0828389Y0100187D01*
X0824300Y0096098D02*
X0834522Y0107342D01*
D12*
X0831022Y0065442D02*
X0831022Y0065053D01*
X0830634Y0065053D01*
X0830634Y0065442D01*
X0831022Y0065442D01*
X0827235Y0058442D02*
X0827079Y0058446D01*
X0826923Y0058454D01*
X0826767Y0058465D01*
X0826612Y0058480D01*
X0826457Y0058499D01*
X0826303Y0058521D01*
X0826149Y0058547D01*
X0825996Y0058577D01*
X0825844Y0058610D01*
X0825692Y0058647D01*
X0825541Y0058688D01*
X0825392Y0058732D01*
X0825243Y0058779D01*
X0825096Y0058831D01*
X0826068Y0063109D02*
X0826197Y0063105D01*
X0826326Y0063097D01*
X0826454Y0063086D01*
X0826582Y0063071D01*
X0826710Y0063052D01*
X0826837Y0063030D01*
X0826963Y0063004D01*
X0827088Y0062974D01*
X0827213Y0062941D01*
X0827336Y0062904D01*
X0827459Y0062863D01*
X0827580Y0062819D01*
X0827700Y0062771D01*
X0827818Y0062720D01*
X0826068Y0063108D02*
X0826006Y0063107D01*
X0825944Y0063102D01*
X0825883Y0063093D01*
X0825822Y0063081D01*
X0825762Y0063065D01*
X0825703Y0063045D01*
X0825645Y0063021D01*
X0825589Y0062995D01*
X0825535Y0062964D01*
X0825483Y0062931D01*
X0825433Y0062894D01*
X0825385Y0062854D01*
X0825340Y0062811D01*
X0825297Y0062766D01*
X0825258Y0062718D01*
X0825221Y0062668D01*
X0825188Y0062615D01*
X0825158Y0062561D01*
X0825131Y0062505D01*
X0825108Y0062447D01*
X0825088Y0062388D01*
X0825072Y0062328D01*
X0825060Y0062267D01*
X0825052Y0062206D01*
X0825047Y0062144D01*
X0825046Y0062081D01*
X0825049Y0062019D01*
X0825056Y0061958D01*
X0825067Y0061896D01*
X0825081Y0061836D01*
X0825099Y0061776D01*
X0825121Y0061718D01*
X0825146Y0061661D01*
X0825175Y0061606D01*
X0825207Y0061553D01*
X0825243Y0061502D01*
X0825281Y0061453D01*
X0825322Y0061407D01*
X0825366Y0061363D01*
X0825413Y0061322D01*
X0825462Y0061284D01*
X0825514Y0061249D01*
X0825567Y0061217D01*
X0825623Y0061189D01*
X0825680Y0061164D01*
X0825679Y0061164D02*
X0827624Y0060387D01*
X0827623Y0060386D02*
X0827680Y0060361D01*
X0827736Y0060333D01*
X0827789Y0060301D01*
X0827841Y0060266D01*
X0827890Y0060228D01*
X0827937Y0060187D01*
X0827981Y0060143D01*
X0828022Y0060097D01*
X0828060Y0060048D01*
X0828096Y0059997D01*
X0828128Y0059944D01*
X0828157Y0059889D01*
X0828182Y0059832D01*
X0828204Y0059774D01*
X0828222Y0059714D01*
X0828236Y0059654D01*
X0828247Y0059592D01*
X0828254Y0059531D01*
X0828257Y0059469D01*
X0828256Y0059406D01*
X0828251Y0059344D01*
X0828243Y0059283D01*
X0828231Y0059222D01*
X0828215Y0059162D01*
X0828195Y0059103D01*
X0828172Y0059045D01*
X0828145Y0058989D01*
X0828115Y0058935D01*
X0828082Y0058882D01*
X0828045Y0058832D01*
X0828006Y0058784D01*
X0827963Y0058739D01*
X0827918Y0058696D01*
X0827870Y0058656D01*
X0827820Y0058619D01*
X0827768Y0058586D01*
X0827714Y0058555D01*
X0827658Y0058529D01*
X0827600Y0058505D01*
X0827541Y0058485D01*
X0827481Y0058469D01*
X0827420Y0058457D01*
X0827359Y0058448D01*
X0827297Y0058443D01*
X0827235Y0058442D01*
X0830828Y0058442D02*
X0830828Y0063109D01*
X0833449Y0061553D02*
X0833449Y0059609D01*
X0833449Y0060775D02*
X0836560Y0060775D01*
X0836560Y0061553D01*
X0836561Y0061553D02*
X0836559Y0061631D01*
X0836553Y0061708D01*
X0836544Y0061785D01*
X0836530Y0061861D01*
X0836513Y0061937D01*
X0836492Y0062012D01*
X0836467Y0062085D01*
X0836439Y0062157D01*
X0836407Y0062228D01*
X0836372Y0062297D01*
X0836333Y0062364D01*
X0836291Y0062430D01*
X0836245Y0062493D01*
X0836197Y0062553D01*
X0836146Y0062611D01*
X0836091Y0062667D01*
X0836035Y0062720D01*
X0835975Y0062770D01*
X0835913Y0062816D01*
X0835849Y0062860D01*
X0835783Y0062901D01*
X0835715Y0062938D01*
X0835645Y0062971D01*
X0835573Y0063001D01*
X0835501Y0063028D01*
X0835426Y0063051D01*
X0835351Y0063070D01*
X0835275Y0063085D01*
X0835198Y0063097D01*
X0835121Y0063105D01*
X0835044Y0063109D01*
X0834966Y0063109D01*
X0834889Y0063105D01*
X0834812Y0063097D01*
X0834735Y0063085D01*
X0834659Y0063070D01*
X0834584Y0063051D01*
X0834509Y0063028D01*
X0834437Y0063001D01*
X0834365Y0062971D01*
X0834295Y0062938D01*
X0834227Y0062901D01*
X0834161Y0062860D01*
X0834097Y0062816D01*
X0834035Y0062770D01*
X0833975Y0062720D01*
X0833919Y0062667D01*
X0833864Y0062611D01*
X0833813Y0062553D01*
X0833765Y0062493D01*
X0833719Y0062430D01*
X0833677Y0062364D01*
X0833638Y0062297D01*
X0833603Y0062228D01*
X0833571Y0062157D01*
X0833543Y0062085D01*
X0833518Y0062012D01*
X0833497Y0061937D01*
X0833480Y0061861D01*
X0833466Y0061785D01*
X0833457Y0061708D01*
X0833451Y0061631D01*
X0833449Y0061553D01*
X0833449Y0059609D02*
X0833451Y0059544D01*
X0833456Y0059478D01*
X0833465Y0059414D01*
X0833478Y0059349D01*
X0833495Y0059286D01*
X0833514Y0059224D01*
X0833538Y0059162D01*
X0833565Y0059103D01*
X0833595Y0059045D01*
X0833628Y0058988D01*
X0833664Y0058934D01*
X0833704Y0058881D01*
X0833746Y0058831D01*
X0833791Y0058784D01*
X0833838Y0058739D01*
X0833888Y0058697D01*
X0833941Y0058657D01*
X0833995Y0058621D01*
X0834052Y0058588D01*
X0834110Y0058558D01*
X0834169Y0058531D01*
X0834231Y0058507D01*
X0834293Y0058488D01*
X0834356Y0058471D01*
X0834421Y0058458D01*
X0834485Y0058449D01*
X0834551Y0058444D01*
X0834616Y0058442D01*
X0836560Y0058442D01*
X0839384Y0058442D02*
X0839384Y0063109D01*
X0841329Y0063109D01*
X0841397Y0063107D01*
X0841464Y0063101D01*
X0841532Y0063091D01*
X0841598Y0063078D01*
X0841664Y0063060D01*
X0841728Y0063039D01*
X0841791Y0063014D01*
X0841853Y0062985D01*
X0841912Y0062953D01*
X0841970Y0062917D01*
X0842026Y0062878D01*
X0842079Y0062836D01*
X0842130Y0062791D01*
X0842178Y0062743D01*
X0842223Y0062692D01*
X0842265Y0062639D01*
X0842304Y0062583D01*
X0842340Y0062526D01*
X0842372Y0062466D01*
X0842401Y0062404D01*
X0842426Y0062341D01*
X0842447Y0062277D01*
X0842465Y0062211D01*
X0842478Y0062145D01*
X0842488Y0062077D01*
X0842494Y0062010D01*
X0842496Y0061942D01*
X0842495Y0061942D02*
X0842495Y0058442D01*
X0845601Y0058442D02*
X0845601Y0065442D01*
X0848712Y0063109D02*
X0845601Y0060775D01*
X0846962Y0061748D02*
X0848712Y0058442D01*
X0852369Y0058442D02*
X0854119Y0058442D01*
X0854119Y0061942D01*
X0854119Y0061164D02*
X0852369Y0061164D01*
X0854119Y0061942D02*
X0854117Y0062007D01*
X0854112Y0062073D01*
X0854103Y0062137D01*
X0854090Y0062202D01*
X0854073Y0062265D01*
X0854054Y0062327D01*
X0854030Y0062389D01*
X0854003Y0062448D01*
X0853973Y0062506D01*
X0853940Y0062563D01*
X0853904Y0062617D01*
X0853864Y0062670D01*
X0853822Y0062720D01*
X0853777Y0062767D01*
X0853730Y0062812D01*
X0853680Y0062854D01*
X0853627Y0062894D01*
X0853573Y0062930D01*
X0853516Y0062963D01*
X0853458Y0062993D01*
X0853399Y0063020D01*
X0853337Y0063044D01*
X0853275Y0063063D01*
X0853212Y0063080D01*
X0853147Y0063093D01*
X0853083Y0063102D01*
X0853017Y0063107D01*
X0852952Y0063109D01*
X0851397Y0063109D01*
X0852369Y0061164D02*
X0852297Y0061162D01*
X0852224Y0061156D01*
X0852153Y0061147D01*
X0852081Y0061133D01*
X0852011Y0061116D01*
X0851942Y0061095D01*
X0851873Y0061071D01*
X0851807Y0061042D01*
X0851741Y0061011D01*
X0851678Y0060976D01*
X0851617Y0060937D01*
X0851557Y0060895D01*
X0851500Y0060851D01*
X0851446Y0060803D01*
X0851394Y0060752D01*
X0851345Y0060699D01*
X0851299Y0060643D01*
X0851255Y0060585D01*
X0851215Y0060525D01*
X0851178Y0060462D01*
X0851145Y0060398D01*
X0851115Y0060332D01*
X0851089Y0060265D01*
X0851066Y0060196D01*
X0851047Y0060126D01*
X0851032Y0060055D01*
X0851020Y0059984D01*
X0851012Y0059912D01*
X0851008Y0059839D01*
X0851008Y0059767D01*
X0851012Y0059694D01*
X0851020Y0059622D01*
X0851032Y0059551D01*
X0851047Y0059480D01*
X0851066Y0059410D01*
X0851089Y0059341D01*
X0851115Y0059274D01*
X0851145Y0059208D01*
X0851178Y0059144D01*
X0851215Y0059081D01*
X0851255Y0059021D01*
X0851299Y0058963D01*
X0851345Y0058907D01*
X0851394Y0058854D01*
X0851446Y0058803D01*
X0851500Y0058755D01*
X0851557Y0058711D01*
X0851617Y0058669D01*
X0851678Y0058630D01*
X0851741Y0058595D01*
X0851807Y0058564D01*
X0851873Y0058535D01*
X0851942Y0058511D01*
X0852011Y0058490D01*
X0852081Y0058473D01*
X0852153Y0058459D01*
X0852224Y0058450D01*
X0852297Y0058444D01*
X0852369Y0058442D01*
X0822492Y0059998D02*
X0822492Y0061553D01*
X0822490Y0061631D01*
X0822484Y0061708D01*
X0822475Y0061785D01*
X0822461Y0061861D01*
X0822444Y0061937D01*
X0822423Y0062012D01*
X0822398Y0062085D01*
X0822370Y0062157D01*
X0822338Y0062228D01*
X0822303Y0062297D01*
X0822264Y0062364D01*
X0822222Y0062430D01*
X0822176Y0062493D01*
X0822128Y0062553D01*
X0822077Y0062611D01*
X0822022Y0062667D01*
X0821966Y0062720D01*
X0821906Y0062770D01*
X0821844Y0062816D01*
X0821780Y0062860D01*
X0821714Y0062901D01*
X0821646Y0062938D01*
X0821576Y0062971D01*
X0821504Y0063001D01*
X0821432Y0063028D01*
X0821357Y0063051D01*
X0821282Y0063070D01*
X0821206Y0063085D01*
X0821129Y0063097D01*
X0821052Y0063105D01*
X0820975Y0063109D01*
X0820897Y0063109D01*
X0820820Y0063105D01*
X0820743Y0063097D01*
X0820666Y0063085D01*
X0820590Y0063070D01*
X0820515Y0063051D01*
X0820440Y0063028D01*
X0820368Y0063001D01*
X0820296Y0062971D01*
X0820226Y0062938D01*
X0820158Y0062901D01*
X0820092Y0062860D01*
X0820028Y0062816D01*
X0819966Y0062770D01*
X0819906Y0062720D01*
X0819850Y0062667D01*
X0819795Y0062611D01*
X0819744Y0062553D01*
X0819696Y0062493D01*
X0819650Y0062430D01*
X0819608Y0062364D01*
X0819569Y0062297D01*
X0819534Y0062228D01*
X0819502Y0062157D01*
X0819474Y0062085D01*
X0819449Y0062012D01*
X0819428Y0061937D01*
X0819411Y0061861D01*
X0819397Y0061785D01*
X0819388Y0061708D01*
X0819382Y0061631D01*
X0819380Y0061553D01*
X0819380Y0059998D01*
X0819382Y0059920D01*
X0819388Y0059843D01*
X0819397Y0059766D01*
X0819411Y0059690D01*
X0819428Y0059614D01*
X0819449Y0059539D01*
X0819474Y0059466D01*
X0819502Y0059394D01*
X0819534Y0059323D01*
X0819569Y0059254D01*
X0819608Y0059187D01*
X0819650Y0059121D01*
X0819696Y0059058D01*
X0819744Y0058998D01*
X0819795Y0058940D01*
X0819850Y0058884D01*
X0819906Y0058831D01*
X0819966Y0058781D01*
X0820028Y0058735D01*
X0820092Y0058691D01*
X0820158Y0058650D01*
X0820226Y0058613D01*
X0820296Y0058580D01*
X0820368Y0058550D01*
X0820440Y0058523D01*
X0820515Y0058500D01*
X0820590Y0058481D01*
X0820666Y0058466D01*
X0820743Y0058454D01*
X0820820Y0058446D01*
X0820897Y0058442D01*
X0820975Y0058442D01*
X0821052Y0058446D01*
X0821129Y0058454D01*
X0821206Y0058466D01*
X0821282Y0058481D01*
X0821357Y0058500D01*
X0821432Y0058523D01*
X0821504Y0058550D01*
X0821576Y0058580D01*
X0821646Y0058613D01*
X0821714Y0058650D01*
X0821780Y0058691D01*
X0821844Y0058735D01*
X0821906Y0058781D01*
X0821966Y0058831D01*
X0822022Y0058884D01*
X0822077Y0058940D01*
X0822128Y0058998D01*
X0822176Y0059058D01*
X0822222Y0059121D01*
X0822264Y0059187D01*
X0822303Y0059254D01*
X0822338Y0059323D01*
X0822370Y0059394D01*
X0822398Y0059466D01*
X0822423Y0059539D01*
X0822444Y0059614D01*
X0822461Y0059690D01*
X0822475Y0059766D01*
X0822484Y0059843D01*
X0822490Y0059920D01*
X0822492Y0059998D01*
X0816996Y0063109D02*
X0815440Y0058442D01*
X0813885Y0063109D01*
X0812073Y0063109D02*
X0812073Y0062331D01*
X0812073Y0063109D02*
X0809740Y0063109D01*
X0809740Y0058442D01*
X0806911Y0059609D02*
X0806911Y0061942D01*
X0806909Y0062010D01*
X0806903Y0062077D01*
X0806893Y0062145D01*
X0806880Y0062211D01*
X0806862Y0062277D01*
X0806841Y0062341D01*
X0806816Y0062404D01*
X0806787Y0062466D01*
X0806755Y0062526D01*
X0806719Y0062583D01*
X0806680Y0062639D01*
X0806638Y0062692D01*
X0806593Y0062743D01*
X0806545Y0062791D01*
X0806494Y0062836D01*
X0806441Y0062878D01*
X0806385Y0062917D01*
X0806327Y0062953D01*
X0806268Y0062985D01*
X0806206Y0063014D01*
X0806143Y0063039D01*
X0806079Y0063060D01*
X0806013Y0063078D01*
X0805947Y0063091D01*
X0805879Y0063101D01*
X0805812Y0063107D01*
X0805744Y0063109D01*
X0803800Y0063109D01*
X0803800Y0056109D01*
X0803800Y0058442D02*
X0805744Y0058442D01*
X0805809Y0058444D01*
X0805875Y0058449D01*
X0805939Y0058458D01*
X0806004Y0058471D01*
X0806067Y0058488D01*
X0806129Y0058507D01*
X0806191Y0058531D01*
X0806250Y0058558D01*
X0806308Y0058588D01*
X0806365Y0058621D01*
X0806419Y0058657D01*
X0806472Y0058697D01*
X0806522Y0058739D01*
X0806569Y0058784D01*
X0806614Y0058831D01*
X0806656Y0058881D01*
X0806696Y0058934D01*
X0806732Y0058988D01*
X0806765Y0059045D01*
X0806795Y0059103D01*
X0806822Y0059162D01*
X0806846Y0059224D01*
X0806865Y0059286D01*
X0806882Y0059349D01*
X0806895Y0059414D01*
X0806904Y0059478D01*
X0806909Y0059544D01*
X0806911Y0059609D01*
D13*
X0138486Y0058342D02*
X0137041Y0058342D01*
X0136984Y0058344D01*
X0136928Y0058349D01*
X0136872Y0058359D01*
X0136817Y0058372D01*
X0136762Y0058388D01*
X0136709Y0058408D01*
X0136658Y0058431D01*
X0136608Y0058458D01*
X0136559Y0058488D01*
X0136513Y0058521D01*
X0136469Y0058557D01*
X0136428Y0058596D01*
X0136389Y0058637D01*
X0136353Y0058681D01*
X0136320Y0058727D01*
X0136290Y0058776D01*
X0136263Y0058826D01*
X0136240Y0058877D01*
X0136220Y0058930D01*
X0136204Y0058985D01*
X0136191Y0059040D01*
X0136181Y0059096D01*
X0136176Y0059152D01*
X0136174Y0059209D01*
X0136175Y0059209D02*
X0136175Y0060942D01*
X0136174Y0060942D02*
X0136176Y0060999D01*
X0136181Y0061055D01*
X0136191Y0061111D01*
X0136204Y0061166D01*
X0136220Y0061221D01*
X0136240Y0061274D01*
X0136263Y0061325D01*
X0136290Y0061376D01*
X0136320Y0061424D01*
X0136353Y0061470D01*
X0136389Y0061514D01*
X0136428Y0061555D01*
X0136469Y0061594D01*
X0136513Y0061630D01*
X0136559Y0061663D01*
X0136608Y0061693D01*
X0136658Y0061720D01*
X0136709Y0061743D01*
X0136762Y0061763D01*
X0136817Y0061779D01*
X0136872Y0061792D01*
X0136928Y0061802D01*
X0136984Y0061807D01*
X0137041Y0061809D01*
X0138486Y0061809D01*
X0138486Y0063542D02*
X0138486Y0058342D01*
X0134600Y0061231D02*
X0134600Y0061809D01*
X0132867Y0061809D01*
X0132867Y0058342D01*
X0130422Y0058342D02*
X0130422Y0060942D01*
X0130422Y0060364D02*
X0129122Y0060364D01*
X0130422Y0060942D02*
X0130420Y0060999D01*
X0130415Y0061055D01*
X0130405Y0061111D01*
X0130392Y0061166D01*
X0130376Y0061221D01*
X0130356Y0061274D01*
X0130333Y0061325D01*
X0130306Y0061376D01*
X0130276Y0061424D01*
X0130243Y0061470D01*
X0130207Y0061514D01*
X0130168Y0061555D01*
X0130127Y0061594D01*
X0130083Y0061630D01*
X0130037Y0061663D01*
X0129989Y0061693D01*
X0129938Y0061720D01*
X0129887Y0061743D01*
X0129834Y0061763D01*
X0129779Y0061779D01*
X0129724Y0061792D01*
X0129668Y0061802D01*
X0129612Y0061807D01*
X0129555Y0061809D01*
X0128400Y0061809D01*
X0129122Y0060364D02*
X0129060Y0060362D01*
X0128998Y0060356D01*
X0128936Y0060347D01*
X0128875Y0060333D01*
X0128816Y0060316D01*
X0128757Y0060296D01*
X0128699Y0060271D01*
X0128644Y0060244D01*
X0128590Y0060213D01*
X0128538Y0060178D01*
X0128488Y0060141D01*
X0128441Y0060100D01*
X0128396Y0060057D01*
X0128354Y0060011D01*
X0128315Y0059962D01*
X0128279Y0059911D01*
X0128246Y0059859D01*
X0128217Y0059804D01*
X0128191Y0059747D01*
X0128168Y0059689D01*
X0128150Y0059630D01*
X0128134Y0059569D01*
X0128123Y0059508D01*
X0128115Y0059446D01*
X0128111Y0059384D01*
X0128111Y0059322D01*
X0128115Y0059260D01*
X0128123Y0059198D01*
X0128134Y0059137D01*
X0128150Y0059076D01*
X0128168Y0059017D01*
X0128191Y0058959D01*
X0128217Y0058902D01*
X0128246Y0058848D01*
X0128279Y0058795D01*
X0128315Y0058744D01*
X0128354Y0058695D01*
X0128396Y0058649D01*
X0128441Y0058606D01*
X0128488Y0058565D01*
X0128538Y0058528D01*
X0128590Y0058493D01*
X0128644Y0058462D01*
X0128699Y0058435D01*
X0128757Y0058410D01*
X0128816Y0058390D01*
X0128875Y0058373D01*
X0128936Y0058359D01*
X0128998Y0058350D01*
X0129060Y0058344D01*
X0129122Y0058342D01*
X0130422Y0058342D01*
X0126079Y0059498D02*
X0126079Y0060653D01*
X0126077Y0060720D01*
X0126071Y0060787D01*
X0126061Y0060854D01*
X0126048Y0060920D01*
X0126030Y0060985D01*
X0126009Y0061048D01*
X0125984Y0061111D01*
X0125956Y0061172D01*
X0125924Y0061231D01*
X0125889Y0061288D01*
X0125850Y0061343D01*
X0125809Y0061396D01*
X0125764Y0061446D01*
X0125716Y0061494D01*
X0125666Y0061539D01*
X0125613Y0061580D01*
X0125558Y0061619D01*
X0125501Y0061654D01*
X0125442Y0061686D01*
X0125381Y0061714D01*
X0125318Y0061739D01*
X0125255Y0061760D01*
X0125190Y0061778D01*
X0125124Y0061791D01*
X0125057Y0061801D01*
X0124990Y0061807D01*
X0124923Y0061809D01*
X0124856Y0061807D01*
X0124789Y0061801D01*
X0124722Y0061791D01*
X0124656Y0061778D01*
X0124591Y0061760D01*
X0124528Y0061739D01*
X0124465Y0061714D01*
X0124404Y0061686D01*
X0124345Y0061654D01*
X0124288Y0061619D01*
X0124233Y0061580D01*
X0124180Y0061539D01*
X0124130Y0061494D01*
X0124082Y0061446D01*
X0124037Y0061396D01*
X0123996Y0061343D01*
X0123957Y0061288D01*
X0123922Y0061231D01*
X0123890Y0061172D01*
X0123862Y0061111D01*
X0123837Y0061048D01*
X0123816Y0060985D01*
X0123798Y0060920D01*
X0123785Y0060854D01*
X0123775Y0060787D01*
X0123769Y0060720D01*
X0123767Y0060653D01*
X0123767Y0059498D01*
X0123769Y0059431D01*
X0123775Y0059364D01*
X0123785Y0059297D01*
X0123798Y0059231D01*
X0123816Y0059166D01*
X0123837Y0059103D01*
X0123862Y0059040D01*
X0123890Y0058979D01*
X0123922Y0058920D01*
X0123957Y0058863D01*
X0123996Y0058808D01*
X0124037Y0058755D01*
X0124082Y0058705D01*
X0124130Y0058657D01*
X0124180Y0058612D01*
X0124233Y0058571D01*
X0124288Y0058532D01*
X0124345Y0058497D01*
X0124404Y0058465D01*
X0124465Y0058437D01*
X0124528Y0058412D01*
X0124591Y0058391D01*
X0124656Y0058373D01*
X0124722Y0058360D01*
X0124789Y0058350D01*
X0124856Y0058344D01*
X0124923Y0058342D01*
X0124990Y0058344D01*
X0125057Y0058350D01*
X0125124Y0058360D01*
X0125190Y0058373D01*
X0125255Y0058391D01*
X0125318Y0058412D01*
X0125381Y0058437D01*
X0125442Y0058465D01*
X0125501Y0058497D01*
X0125558Y0058532D01*
X0125613Y0058571D01*
X0125666Y0058612D01*
X0125716Y0058657D01*
X0125764Y0058705D01*
X0125809Y0058755D01*
X0125850Y0058808D01*
X0125889Y0058863D01*
X0125924Y0058920D01*
X0125956Y0058979D01*
X0125984Y0059040D01*
X0126009Y0059103D01*
X0126030Y0059166D01*
X0126048Y0059231D01*
X0126061Y0059297D01*
X0126071Y0059364D01*
X0126077Y0059431D01*
X0126079Y0059498D01*
X0120458Y0058343D02*
X0120534Y0058345D01*
X0120609Y0058351D01*
X0120684Y0058361D01*
X0120758Y0058375D01*
X0120832Y0058392D01*
X0120904Y0058414D01*
X0120975Y0058439D01*
X0121045Y0058468D01*
X0121114Y0058500D01*
X0121180Y0058536D01*
X0121244Y0058576D01*
X0121307Y0058619D01*
X0121367Y0058665D01*
X0121424Y0058714D01*
X0121479Y0058766D01*
X0121531Y0058821D01*
X0121580Y0058878D01*
X0121626Y0058938D01*
X0121669Y0059001D01*
X0121709Y0059065D01*
X0121745Y0059131D01*
X0121777Y0059200D01*
X0121806Y0059270D01*
X0121831Y0059341D01*
X0121853Y0059413D01*
X0121870Y0059487D01*
X0121884Y0059561D01*
X0121894Y0059636D01*
X0121900Y0059711D01*
X0121902Y0059787D01*
X0121900Y0059863D01*
X0121894Y0059938D01*
X0121884Y0060013D01*
X0121870Y0060087D01*
X0121853Y0060161D01*
X0121831Y0060233D01*
X0121806Y0060304D01*
X0121777Y0060374D01*
X0121745Y0060443D01*
X0121709Y0060509D01*
X0121669Y0060573D01*
X0121626Y0060636D01*
X0121580Y0060696D01*
X0121531Y0060753D01*
X0121479Y0060808D01*
X0121424Y0060860D01*
X0121367Y0060909D01*
X0121307Y0060955D01*
X0121244Y0060998D01*
X0121180Y0061038D01*
X0121114Y0061074D01*
X0121045Y0061106D01*
X0120975Y0061135D01*
X0120904Y0061160D01*
X0120832Y0061182D01*
X0120758Y0061199D01*
X0120684Y0061213D01*
X0120609Y0061223D01*
X0120534Y0061229D01*
X0120458Y0061231D01*
X0119013Y0061231D01*
X0120458Y0061231D02*
X0120525Y0061233D01*
X0120592Y0061239D01*
X0120659Y0061249D01*
X0120725Y0061262D01*
X0120790Y0061280D01*
X0120853Y0061301D01*
X0120916Y0061326D01*
X0120977Y0061354D01*
X0121036Y0061386D01*
X0121093Y0061421D01*
X0121148Y0061460D01*
X0121201Y0061501D01*
X0121251Y0061546D01*
X0121299Y0061594D01*
X0121344Y0061644D01*
X0121385Y0061697D01*
X0121424Y0061752D01*
X0121459Y0061809D01*
X0121491Y0061868D01*
X0121519Y0061929D01*
X0121544Y0061992D01*
X0121565Y0062055D01*
X0121583Y0062120D01*
X0121596Y0062186D01*
X0121606Y0062253D01*
X0121612Y0062320D01*
X0121614Y0062387D01*
X0121612Y0062454D01*
X0121606Y0062521D01*
X0121596Y0062588D01*
X0121583Y0062654D01*
X0121565Y0062719D01*
X0121544Y0062782D01*
X0121519Y0062845D01*
X0121491Y0062906D01*
X0121459Y0062965D01*
X0121424Y0063022D01*
X0121385Y0063077D01*
X0121344Y0063130D01*
X0121299Y0063180D01*
X0121251Y0063228D01*
X0121201Y0063273D01*
X0121148Y0063314D01*
X0121093Y0063353D01*
X0121036Y0063388D01*
X0120977Y0063420D01*
X0120916Y0063448D01*
X0120853Y0063473D01*
X0120790Y0063494D01*
X0120725Y0063512D01*
X0120659Y0063525D01*
X0120592Y0063535D01*
X0120525Y0063541D01*
X0120458Y0063543D01*
X0120458Y0063542D02*
X0119013Y0063542D01*
X0119013Y0058342D01*
X0120458Y0058342D01*
X0113549Y0059787D02*
X0112105Y0060364D01*
X0112105Y0060365D02*
X0112056Y0060386D01*
X0112009Y0060411D01*
X0111964Y0060439D01*
X0111921Y0060471D01*
X0111880Y0060505D01*
X0111842Y0060542D01*
X0111806Y0060582D01*
X0111774Y0060624D01*
X0111744Y0060669D01*
X0111718Y0060715D01*
X0111695Y0060763D01*
X0111676Y0060813D01*
X0111660Y0060864D01*
X0111648Y0060916D01*
X0111640Y0060968D01*
X0111635Y0061021D01*
X0111634Y0061075D01*
X0111637Y0061128D01*
X0111644Y0061181D01*
X0111654Y0061233D01*
X0111668Y0061284D01*
X0111686Y0061335D01*
X0111707Y0061383D01*
X0111732Y0061431D01*
X0111760Y0061476D01*
X0111791Y0061519D01*
X0111825Y0061560D01*
X0111862Y0061598D01*
X0111902Y0061634D01*
X0111944Y0061667D01*
X0111988Y0061697D01*
X0112035Y0061723D01*
X0112083Y0061746D01*
X0112132Y0061766D01*
X0112183Y0061782D01*
X0112235Y0061794D01*
X0112287Y0061803D01*
X0112340Y0061808D01*
X0112394Y0061809D01*
X0111671Y0058630D02*
X0111799Y0058586D01*
X0111928Y0058546D01*
X0112058Y0058509D01*
X0112189Y0058476D01*
X0112321Y0058446D01*
X0112453Y0058420D01*
X0112587Y0058398D01*
X0112721Y0058379D01*
X0112855Y0058364D01*
X0112990Y0058353D01*
X0113125Y0058345D01*
X0113260Y0058342D01*
X0113314Y0058343D01*
X0113367Y0058348D01*
X0113419Y0058357D01*
X0113471Y0058369D01*
X0113522Y0058385D01*
X0113571Y0058405D01*
X0113619Y0058428D01*
X0113666Y0058454D01*
X0113710Y0058484D01*
X0113752Y0058517D01*
X0113792Y0058553D01*
X0113829Y0058591D01*
X0113863Y0058632D01*
X0113894Y0058675D01*
X0113922Y0058720D01*
X0113947Y0058768D01*
X0113968Y0058816D01*
X0113986Y0058867D01*
X0114000Y0058918D01*
X0114010Y0058970D01*
X0114017Y0059023D01*
X0114020Y0059076D01*
X0114019Y0059130D01*
X0114014Y0059183D01*
X0114006Y0059235D01*
X0113994Y0059287D01*
X0113978Y0059338D01*
X0113959Y0059388D01*
X0113936Y0059436D01*
X0113910Y0059482D01*
X0113880Y0059527D01*
X0113848Y0059569D01*
X0113812Y0059609D01*
X0113774Y0059646D01*
X0113733Y0059680D01*
X0113690Y0059712D01*
X0113645Y0059740D01*
X0113598Y0059765D01*
X0113549Y0059786D01*
X0113694Y0061520D02*
X0113591Y0061564D01*
X0113487Y0061605D01*
X0113382Y0061642D01*
X0113275Y0061675D01*
X0113167Y0061705D01*
X0113059Y0061731D01*
X0112949Y0061753D01*
X0112839Y0061772D01*
X0112728Y0061787D01*
X0112617Y0061798D01*
X0112506Y0061805D01*
X0112394Y0061809D01*
X0109447Y0061809D02*
X0109447Y0058342D01*
X0108002Y0058342D01*
X0107945Y0058344D01*
X0107889Y0058349D01*
X0107833Y0058359D01*
X0107778Y0058372D01*
X0107723Y0058388D01*
X0107670Y0058408D01*
X0107619Y0058431D01*
X0107569Y0058458D01*
X0107520Y0058488D01*
X0107474Y0058521D01*
X0107430Y0058557D01*
X0107389Y0058596D01*
X0107350Y0058637D01*
X0107314Y0058681D01*
X0107281Y0058727D01*
X0107251Y0058776D01*
X0107224Y0058826D01*
X0107201Y0058877D01*
X0107181Y0058930D01*
X0107165Y0058985D01*
X0107152Y0059040D01*
X0107142Y0059096D01*
X0107137Y0059152D01*
X0107135Y0059209D01*
X0107135Y0061809D01*
X0103658Y0061231D02*
X0103725Y0061233D01*
X0103792Y0061239D01*
X0103859Y0061249D01*
X0103925Y0061262D01*
X0103990Y0061280D01*
X0104053Y0061301D01*
X0104116Y0061326D01*
X0104177Y0061354D01*
X0104236Y0061386D01*
X0104293Y0061421D01*
X0104348Y0061460D01*
X0104401Y0061501D01*
X0104451Y0061546D01*
X0104499Y0061594D01*
X0104544Y0061644D01*
X0104585Y0061697D01*
X0104624Y0061752D01*
X0104659Y0061809D01*
X0104691Y0061868D01*
X0104719Y0061929D01*
X0104744Y0061992D01*
X0104765Y0062055D01*
X0104783Y0062120D01*
X0104796Y0062186D01*
X0104806Y0062253D01*
X0104812Y0062320D01*
X0104814Y0062387D01*
X0104812Y0062454D01*
X0104806Y0062521D01*
X0104796Y0062588D01*
X0104783Y0062654D01*
X0104765Y0062719D01*
X0104744Y0062782D01*
X0104719Y0062845D01*
X0104691Y0062906D01*
X0104659Y0062965D01*
X0104624Y0063022D01*
X0104585Y0063077D01*
X0104544Y0063130D01*
X0104499Y0063180D01*
X0104451Y0063228D01*
X0104401Y0063273D01*
X0104348Y0063314D01*
X0104293Y0063353D01*
X0104236Y0063388D01*
X0104177Y0063420D01*
X0104116Y0063448D01*
X0104053Y0063473D01*
X0103990Y0063494D01*
X0103925Y0063512D01*
X0103859Y0063525D01*
X0103792Y0063535D01*
X0103725Y0063541D01*
X0103658Y0063543D01*
X0103658Y0063542D02*
X0102213Y0063542D01*
X0102213Y0058342D01*
X0103658Y0058342D01*
X0103658Y0058343D02*
X0103734Y0058345D01*
X0103809Y0058351D01*
X0103884Y0058361D01*
X0103958Y0058375D01*
X0104032Y0058392D01*
X0104104Y0058414D01*
X0104175Y0058439D01*
X0104245Y0058468D01*
X0104314Y0058500D01*
X0104380Y0058536D01*
X0104444Y0058576D01*
X0104507Y0058619D01*
X0104567Y0058665D01*
X0104624Y0058714D01*
X0104679Y0058766D01*
X0104731Y0058821D01*
X0104780Y0058878D01*
X0104826Y0058938D01*
X0104869Y0059001D01*
X0104909Y0059065D01*
X0104945Y0059131D01*
X0104977Y0059200D01*
X0105006Y0059270D01*
X0105031Y0059341D01*
X0105053Y0059413D01*
X0105070Y0059487D01*
X0105084Y0059561D01*
X0105094Y0059636D01*
X0105100Y0059711D01*
X0105102Y0059787D01*
X0105100Y0059863D01*
X0105094Y0059938D01*
X0105084Y0060013D01*
X0105070Y0060087D01*
X0105053Y0060161D01*
X0105031Y0060233D01*
X0105006Y0060304D01*
X0104977Y0060374D01*
X0104945Y0060443D01*
X0104909Y0060509D01*
X0104869Y0060573D01*
X0104826Y0060636D01*
X0104780Y0060696D01*
X0104731Y0060753D01*
X0104679Y0060808D01*
X0104624Y0060860D01*
X0104567Y0060909D01*
X0104507Y0060955D01*
X0104444Y0060998D01*
X0104380Y0061038D01*
X0104314Y0061074D01*
X0104245Y0061106D01*
X0104175Y0061135D01*
X0104104Y0061160D01*
X0104032Y0061182D01*
X0103958Y0061199D01*
X0103884Y0061213D01*
X0103809Y0061223D01*
X0103734Y0061229D01*
X0103658Y0061231D01*
X0102213Y0061231D01*
X0097407Y0061809D02*
X0095096Y0060075D01*
X0096107Y0060798D02*
X0097407Y0058342D01*
X0095096Y0058342D02*
X0095096Y0063542D01*
X0093035Y0061809D02*
X0091880Y0061809D01*
X0091823Y0061807D01*
X0091767Y0061802D01*
X0091711Y0061792D01*
X0091656Y0061779D01*
X0091601Y0061763D01*
X0091548Y0061743D01*
X0091497Y0061720D01*
X0091447Y0061693D01*
X0091398Y0061663D01*
X0091352Y0061630D01*
X0091308Y0061594D01*
X0091267Y0061555D01*
X0091228Y0061514D01*
X0091192Y0061470D01*
X0091159Y0061424D01*
X0091129Y0061376D01*
X0091102Y0061325D01*
X0091079Y0061274D01*
X0091059Y0061221D01*
X0091043Y0061166D01*
X0091030Y0061111D01*
X0091020Y0061055D01*
X0091015Y0060999D01*
X0091013Y0060942D01*
X0091013Y0059209D01*
X0091015Y0059152D01*
X0091020Y0059096D01*
X0091030Y0059040D01*
X0091043Y0058985D01*
X0091059Y0058930D01*
X0091079Y0058877D01*
X0091102Y0058826D01*
X0091129Y0058776D01*
X0091159Y0058727D01*
X0091192Y0058681D01*
X0091228Y0058637D01*
X0091267Y0058596D01*
X0091308Y0058557D01*
X0091352Y0058521D01*
X0091398Y0058488D01*
X0091447Y0058458D01*
X0091497Y0058431D01*
X0091548Y0058408D01*
X0091601Y0058388D01*
X0091656Y0058372D01*
X0091711Y0058359D01*
X0091767Y0058349D01*
X0091823Y0058344D01*
X0091880Y0058342D01*
X0093035Y0058342D01*
X0088758Y0058342D02*
X0088758Y0060942D01*
X0088758Y0060364D02*
X0087458Y0060364D01*
X0088758Y0060942D02*
X0088756Y0060999D01*
X0088751Y0061055D01*
X0088741Y0061111D01*
X0088728Y0061166D01*
X0088712Y0061221D01*
X0088692Y0061274D01*
X0088669Y0061325D01*
X0088642Y0061376D01*
X0088612Y0061424D01*
X0088579Y0061470D01*
X0088543Y0061514D01*
X0088504Y0061555D01*
X0088463Y0061594D01*
X0088419Y0061630D01*
X0088373Y0061663D01*
X0088325Y0061693D01*
X0088274Y0061720D01*
X0088223Y0061743D01*
X0088170Y0061763D01*
X0088115Y0061779D01*
X0088060Y0061792D01*
X0088004Y0061802D01*
X0087948Y0061807D01*
X0087891Y0061809D01*
X0086736Y0061809D01*
X0084872Y0061809D02*
X0084872Y0061231D01*
X0084872Y0061809D02*
X0083139Y0061809D01*
X0083139Y0058342D01*
X0080887Y0059498D02*
X0080887Y0060653D01*
X0080885Y0060720D01*
X0080879Y0060787D01*
X0080869Y0060854D01*
X0080856Y0060920D01*
X0080838Y0060985D01*
X0080817Y0061048D01*
X0080792Y0061111D01*
X0080764Y0061172D01*
X0080732Y0061231D01*
X0080697Y0061288D01*
X0080658Y0061343D01*
X0080617Y0061396D01*
X0080572Y0061446D01*
X0080524Y0061494D01*
X0080474Y0061539D01*
X0080421Y0061580D01*
X0080366Y0061619D01*
X0080309Y0061654D01*
X0080250Y0061686D01*
X0080189Y0061714D01*
X0080126Y0061739D01*
X0080063Y0061760D01*
X0079998Y0061778D01*
X0079932Y0061791D01*
X0079865Y0061801D01*
X0079798Y0061807D01*
X0079731Y0061809D01*
X0079664Y0061807D01*
X0079597Y0061801D01*
X0079530Y0061791D01*
X0079464Y0061778D01*
X0079399Y0061760D01*
X0079336Y0061739D01*
X0079273Y0061714D01*
X0079212Y0061686D01*
X0079153Y0061654D01*
X0079096Y0061619D01*
X0079041Y0061580D01*
X0078988Y0061539D01*
X0078938Y0061494D01*
X0078890Y0061446D01*
X0078845Y0061396D01*
X0078804Y0061343D01*
X0078765Y0061288D01*
X0078730Y0061231D01*
X0078698Y0061172D01*
X0078670Y0061111D01*
X0078645Y0061048D01*
X0078624Y0060985D01*
X0078606Y0060920D01*
X0078593Y0060854D01*
X0078583Y0060787D01*
X0078577Y0060720D01*
X0078575Y0060653D01*
X0078575Y0059498D01*
X0078577Y0059431D01*
X0078583Y0059364D01*
X0078593Y0059297D01*
X0078606Y0059231D01*
X0078624Y0059166D01*
X0078645Y0059103D01*
X0078670Y0059040D01*
X0078698Y0058979D01*
X0078730Y0058920D01*
X0078765Y0058863D01*
X0078804Y0058808D01*
X0078845Y0058755D01*
X0078890Y0058705D01*
X0078938Y0058657D01*
X0078988Y0058612D01*
X0079041Y0058571D01*
X0079096Y0058532D01*
X0079153Y0058497D01*
X0079212Y0058465D01*
X0079273Y0058437D01*
X0079336Y0058412D01*
X0079399Y0058391D01*
X0079464Y0058373D01*
X0079530Y0058360D01*
X0079597Y0058350D01*
X0079664Y0058344D01*
X0079731Y0058342D01*
X0079798Y0058344D01*
X0079865Y0058350D01*
X0079932Y0058360D01*
X0079998Y0058373D01*
X0080063Y0058391D01*
X0080126Y0058412D01*
X0080189Y0058437D01*
X0080250Y0058465D01*
X0080309Y0058497D01*
X0080366Y0058532D01*
X0080421Y0058571D01*
X0080474Y0058612D01*
X0080524Y0058657D01*
X0080572Y0058705D01*
X0080617Y0058755D01*
X0080658Y0058808D01*
X0080697Y0058863D01*
X0080732Y0058920D01*
X0080764Y0058979D01*
X0080792Y0059040D01*
X0080817Y0059103D01*
X0080838Y0059166D01*
X0080856Y0059231D01*
X0080869Y0059297D01*
X0080879Y0059364D01*
X0080885Y0059431D01*
X0080887Y0059498D01*
X0076977Y0061231D02*
X0076977Y0061809D01*
X0075243Y0061809D01*
X0075243Y0058342D01*
X0072823Y0058342D02*
X0072823Y0061809D01*
X0070511Y0061809D02*
X0070511Y0059209D01*
X0070513Y0059152D01*
X0070518Y0059096D01*
X0070528Y0059040D01*
X0070541Y0058985D01*
X0070557Y0058930D01*
X0070577Y0058877D01*
X0070600Y0058826D01*
X0070627Y0058776D01*
X0070657Y0058727D01*
X0070690Y0058681D01*
X0070726Y0058637D01*
X0070765Y0058596D01*
X0070806Y0058557D01*
X0070850Y0058521D01*
X0070896Y0058488D01*
X0070945Y0058458D01*
X0070995Y0058431D01*
X0071046Y0058408D01*
X0071099Y0058388D01*
X0071154Y0058372D01*
X0071209Y0058359D01*
X0071265Y0058349D01*
X0071321Y0058344D01*
X0071378Y0058342D01*
X0072823Y0058342D01*
X0068511Y0058342D02*
X0066200Y0058342D01*
X0066200Y0063542D01*
X0068511Y0063542D01*
X0067933Y0061231D02*
X0066200Y0061231D01*
X0087458Y0060364D02*
X0087396Y0060362D01*
X0087334Y0060356D01*
X0087272Y0060347D01*
X0087211Y0060333D01*
X0087152Y0060316D01*
X0087093Y0060296D01*
X0087035Y0060271D01*
X0086980Y0060244D01*
X0086926Y0060213D01*
X0086874Y0060178D01*
X0086824Y0060141D01*
X0086777Y0060100D01*
X0086732Y0060057D01*
X0086690Y0060011D01*
X0086651Y0059962D01*
X0086615Y0059911D01*
X0086582Y0059859D01*
X0086553Y0059804D01*
X0086527Y0059747D01*
X0086504Y0059689D01*
X0086486Y0059630D01*
X0086470Y0059569D01*
X0086459Y0059508D01*
X0086451Y0059446D01*
X0086447Y0059384D01*
X0086447Y0059322D01*
X0086451Y0059260D01*
X0086459Y0059198D01*
X0086470Y0059137D01*
X0086486Y0059076D01*
X0086504Y0059017D01*
X0086527Y0058959D01*
X0086553Y0058902D01*
X0086582Y0058848D01*
X0086615Y0058795D01*
X0086651Y0058744D01*
X0086690Y0058695D01*
X0086732Y0058649D01*
X0086777Y0058606D01*
X0086824Y0058565D01*
X0086874Y0058528D01*
X0086926Y0058493D01*
X0086980Y0058462D01*
X0087035Y0058435D01*
X0087093Y0058410D01*
X0087152Y0058390D01*
X0087211Y0058373D01*
X0087272Y0058359D01*
X0087334Y0058350D01*
X0087396Y0058344D01*
X0087458Y0058342D01*
X0088758Y0058342D01*
X0013300Y0058342D02*
X0008700Y0058342D01*
X0008700Y0059620D01*
X0008702Y0059690D01*
X0008708Y0059761D01*
X0008717Y0059830D01*
X0008731Y0059899D01*
X0008748Y0059968D01*
X0008769Y0060035D01*
X0008794Y0060101D01*
X0008822Y0060165D01*
X0008854Y0060228D01*
X0008889Y0060289D01*
X0008928Y0060348D01*
X0008969Y0060405D01*
X0009014Y0060459D01*
X0009062Y0060511D01*
X0009112Y0060560D01*
X0009166Y0060607D01*
X0009221Y0060650D01*
X0009279Y0060690D01*
X0009339Y0060727D01*
X0009401Y0060760D01*
X0009465Y0060790D01*
X0009530Y0060817D01*
X0009596Y0060840D01*
X0009664Y0060859D01*
X0009733Y0060874D01*
X0009802Y0060886D01*
X0009872Y0060894D01*
X0009943Y0060898D01*
X0010013Y0060898D01*
X0010084Y0060894D01*
X0010154Y0060886D01*
X0010223Y0060874D01*
X0010292Y0060859D01*
X0010360Y0060840D01*
X0010426Y0060817D01*
X0010491Y0060790D01*
X0010555Y0060760D01*
X0010617Y0060727D01*
X0010677Y0060690D01*
X0010735Y0060650D01*
X0010790Y0060607D01*
X0010844Y0060560D01*
X0010894Y0060511D01*
X0010942Y0060459D01*
X0010987Y0060405D01*
X0011028Y0060348D01*
X0011067Y0060289D01*
X0011102Y0060228D01*
X0011134Y0060165D01*
X0011162Y0060101D01*
X0011187Y0060035D01*
X0011208Y0059968D01*
X0011225Y0059899D01*
X0011239Y0059830D01*
X0011248Y0059761D01*
X0011254Y0059690D01*
X0011256Y0059620D01*
X0011256Y0058342D01*
X0011256Y0059875D02*
X0013300Y0060898D01*
X0013300Y0062613D02*
X0013300Y0062869D01*
X0013044Y0062869D01*
X0013044Y0062613D01*
X0013300Y0062613D01*
X0010617Y0067502D02*
X0011383Y0068907D01*
X0013300Y0068396D02*
X0013298Y0068306D01*
X0013293Y0068217D01*
X0013283Y0068128D01*
X0013270Y0068039D01*
X0013254Y0067951D01*
X0013233Y0067863D01*
X0013209Y0067777D01*
X0013182Y0067691D01*
X0013151Y0067607D01*
X0013116Y0067524D01*
X0013078Y0067443D01*
X0013037Y0067363D01*
X0012993Y0067286D01*
X0012945Y0067210D01*
X0012894Y0067136D01*
X0012840Y0067064D01*
X0012783Y0066995D01*
X0012724Y0066927D01*
X0012661Y0066863D01*
X0011384Y0068907D02*
X0011418Y0068961D01*
X0011455Y0069012D01*
X0011495Y0069061D01*
X0011538Y0069108D01*
X0011584Y0069151D01*
X0011632Y0069192D01*
X0011683Y0069230D01*
X0011736Y0069265D01*
X0011791Y0069297D01*
X0011848Y0069325D01*
X0011906Y0069349D01*
X0011966Y0069370D01*
X0012027Y0069387D01*
X0012089Y0069401D01*
X0012152Y0069410D01*
X0012215Y0069416D01*
X0012278Y0069418D01*
X0012340Y0069416D01*
X0012401Y0069411D01*
X0012462Y0069401D01*
X0012523Y0069388D01*
X0012582Y0069372D01*
X0012640Y0069352D01*
X0012697Y0069328D01*
X0012753Y0069301D01*
X0012807Y0069271D01*
X0012859Y0069237D01*
X0012908Y0069201D01*
X0012956Y0069161D01*
X0013001Y0069119D01*
X0013043Y0069074D01*
X0013083Y0069026D01*
X0013119Y0068977D01*
X0013153Y0068925D01*
X0013183Y0068871D01*
X0013210Y0068815D01*
X0013234Y0068758D01*
X0013254Y0068700D01*
X0013270Y0068641D01*
X0013283Y0068580D01*
X0013293Y0068519D01*
X0013298Y0068458D01*
X0013300Y0068396D01*
X0009083Y0069163D02*
X0009035Y0069096D01*
X0008990Y0069028D01*
X0008948Y0068957D01*
X0008910Y0068884D01*
X0008874Y0068810D01*
X0008841Y0068735D01*
X0008812Y0068658D01*
X0008786Y0068580D01*
X0008763Y0068501D01*
X0008744Y0068421D01*
X0008728Y0068340D01*
X0008716Y0068259D01*
X0008707Y0068177D01*
X0008702Y0068095D01*
X0008700Y0068013D01*
X0008702Y0067951D01*
X0008707Y0067890D01*
X0008717Y0067829D01*
X0008730Y0067768D01*
X0008746Y0067709D01*
X0008766Y0067651D01*
X0008790Y0067594D01*
X0008817Y0067538D01*
X0008847Y0067484D01*
X0008881Y0067432D01*
X0008917Y0067383D01*
X0008957Y0067335D01*
X0008999Y0067290D01*
X0009044Y0067248D01*
X0009092Y0067208D01*
X0009141Y0067172D01*
X0009193Y0067138D01*
X0009247Y0067108D01*
X0009303Y0067081D01*
X0009360Y0067057D01*
X0009418Y0067037D01*
X0009477Y0067021D01*
X0009538Y0067008D01*
X0009599Y0066998D01*
X0009660Y0066993D01*
X0009722Y0066991D01*
X0009785Y0066993D01*
X0009848Y0066999D01*
X0009911Y0067008D01*
X0009973Y0067022D01*
X0010034Y0067039D01*
X0010094Y0067060D01*
X0010152Y0067084D01*
X0010209Y0067112D01*
X0010264Y0067144D01*
X0010317Y0067179D01*
X0010368Y0067217D01*
X0010416Y0067258D01*
X0010462Y0067301D01*
X0010505Y0067348D01*
X0010545Y0067397D01*
X0010582Y0067448D01*
X0010616Y0067502D01*
X0010233Y0070788D02*
X0010233Y0072321D01*
X0008700Y0071299D02*
X0012533Y0071299D01*
X0012588Y0071301D01*
X0012642Y0071307D01*
X0012696Y0071317D01*
X0012749Y0071330D01*
X0012801Y0071347D01*
X0012852Y0071368D01*
X0012901Y0071393D01*
X0012948Y0071421D01*
X0012993Y0071452D01*
X0013035Y0071486D01*
X0013075Y0071524D01*
X0013113Y0071564D01*
X0013147Y0071606D01*
X0013178Y0071651D01*
X0013206Y0071698D01*
X0013231Y0071747D01*
X0013252Y0071798D01*
X0013269Y0071850D01*
X0013282Y0071903D01*
X0013292Y0071957D01*
X0013298Y0072011D01*
X0013300Y0072066D01*
X0013300Y0072321D01*
X0012533Y0074019D02*
X0011256Y0074019D01*
X0011767Y0074019D02*
X0011767Y0076063D01*
X0011256Y0076063D01*
X0011193Y0076061D01*
X0011130Y0076055D01*
X0011068Y0076046D01*
X0011007Y0076032D01*
X0010946Y0076015D01*
X0010887Y0075994D01*
X0010829Y0075969D01*
X0010772Y0075941D01*
X0010718Y0075910D01*
X0010666Y0075875D01*
X0010615Y0075837D01*
X0010567Y0075796D01*
X0010522Y0075752D01*
X0010480Y0075706D01*
X0010440Y0075657D01*
X0010404Y0075606D01*
X0010371Y0075552D01*
X0010341Y0075497D01*
X0010315Y0075439D01*
X0010292Y0075381D01*
X0010273Y0075321D01*
X0010258Y0075260D01*
X0010246Y0075198D01*
X0010238Y0075135D01*
X0010234Y0075072D01*
X0010234Y0075010D01*
X0010238Y0074947D01*
X0010246Y0074884D01*
X0010258Y0074822D01*
X0010273Y0074761D01*
X0010292Y0074701D01*
X0010315Y0074643D01*
X0010341Y0074585D01*
X0010371Y0074530D01*
X0010404Y0074476D01*
X0010440Y0074425D01*
X0010480Y0074376D01*
X0010522Y0074330D01*
X0010567Y0074286D01*
X0010615Y0074245D01*
X0010666Y0074207D01*
X0010718Y0074172D01*
X0010772Y0074141D01*
X0010829Y0074113D01*
X0010887Y0074088D01*
X0010946Y0074067D01*
X0011007Y0074050D01*
X0011068Y0074036D01*
X0011130Y0074027D01*
X0011193Y0074021D01*
X0011256Y0074019D01*
X0012533Y0074018D02*
X0012588Y0074020D01*
X0012642Y0074026D01*
X0012696Y0074036D01*
X0012749Y0074049D01*
X0012801Y0074066D01*
X0012852Y0074087D01*
X0012901Y0074112D01*
X0012948Y0074140D01*
X0012993Y0074171D01*
X0013035Y0074205D01*
X0013075Y0074243D01*
X0013113Y0074283D01*
X0013147Y0074325D01*
X0013178Y0074370D01*
X0013206Y0074417D01*
X0013231Y0074466D01*
X0013252Y0074517D01*
X0013269Y0074569D01*
X0013282Y0074622D01*
X0013292Y0074676D01*
X0013298Y0074730D01*
X0013300Y0074785D01*
X0013300Y0076063D01*
X0013300Y0078165D02*
X0009467Y0078165D01*
X0009412Y0078167D01*
X0009358Y0078173D01*
X0009304Y0078183D01*
X0009251Y0078196D01*
X0009199Y0078213D01*
X0009148Y0078234D01*
X0009099Y0078259D01*
X0009052Y0078287D01*
X0009007Y0078318D01*
X0008965Y0078352D01*
X0008925Y0078390D01*
X0008887Y0078430D01*
X0008853Y0078472D01*
X0008822Y0078517D01*
X0008794Y0078564D01*
X0008769Y0078613D01*
X0008748Y0078664D01*
X0008731Y0078716D01*
X0008718Y0078769D01*
X0008708Y0078823D01*
X0008702Y0078877D01*
X0008700Y0078932D01*
X0008700Y0079187D01*
X0010233Y0079187D02*
X0010233Y0077654D01*
X0010233Y0080619D02*
X0012533Y0080619D01*
X0012533Y0080618D02*
X0012588Y0080620D01*
X0012642Y0080626D01*
X0012696Y0080636D01*
X0012749Y0080649D01*
X0012801Y0080666D01*
X0012852Y0080687D01*
X0012901Y0080712D01*
X0012948Y0080740D01*
X0012993Y0080771D01*
X0013035Y0080805D01*
X0013075Y0080843D01*
X0013113Y0080883D01*
X0013147Y0080925D01*
X0013178Y0080970D01*
X0013206Y0081017D01*
X0013231Y0081066D01*
X0013252Y0081117D01*
X0013269Y0081169D01*
X0013282Y0081222D01*
X0013292Y0081276D01*
X0013298Y0081330D01*
X0013300Y0081385D01*
X0013300Y0082663D01*
X0010233Y0082663D01*
X0010233Y0084819D02*
X0010233Y0086096D01*
X0010235Y0086151D01*
X0010241Y0086205D01*
X0010251Y0086259D01*
X0010264Y0086312D01*
X0010281Y0086364D01*
X0010302Y0086415D01*
X0010327Y0086464D01*
X0010355Y0086511D01*
X0010386Y0086556D01*
X0010420Y0086598D01*
X0010458Y0086638D01*
X0010498Y0086676D01*
X0010540Y0086710D01*
X0010585Y0086741D01*
X0010632Y0086769D01*
X0010681Y0086794D01*
X0010732Y0086815D01*
X0010784Y0086832D01*
X0010837Y0086845D01*
X0010891Y0086855D01*
X0010945Y0086861D01*
X0011000Y0086863D01*
X0013300Y0086863D01*
X0013300Y0084819D02*
X0010233Y0084819D01*
X0013300Y0091313D02*
X0013300Y0093869D01*
X0012661Y0097986D02*
X0012557Y0098034D01*
X0012452Y0098080D01*
X0012346Y0098122D01*
X0012238Y0098161D01*
X0012129Y0098197D01*
X0012019Y0098229D01*
X0011908Y0098259D01*
X0011796Y0098284D01*
X0011684Y0098307D01*
X0011571Y0098326D01*
X0011457Y0098341D01*
X0011343Y0098353D01*
X0011229Y0098362D01*
X0011115Y0098367D01*
X0011000Y0098369D01*
X0011000Y0095813D02*
X0010885Y0095815D01*
X0010771Y0095820D01*
X0010657Y0095829D01*
X0010543Y0095841D01*
X0010429Y0095856D01*
X0010316Y0095875D01*
X0010204Y0095898D01*
X0010092Y0095923D01*
X0009981Y0095953D01*
X0009871Y0095985D01*
X0009762Y0096021D01*
X0009654Y0096060D01*
X0009548Y0096102D01*
X0009443Y0096148D01*
X0009339Y0096196D01*
X0008700Y0097091D02*
X0008702Y0097150D01*
X0008707Y0097208D01*
X0008716Y0097266D01*
X0008729Y0097323D01*
X0008745Y0097380D01*
X0008765Y0097435D01*
X0008788Y0097489D01*
X0008814Y0097541D01*
X0008844Y0097592D01*
X0008876Y0097641D01*
X0008912Y0097688D01*
X0008950Y0097732D01*
X0008991Y0097774D01*
X0009035Y0097813D01*
X0009081Y0097850D01*
X0009129Y0097883D01*
X0009179Y0097914D01*
X0009231Y0097941D01*
X0009284Y0097965D01*
X0009339Y0097986D01*
X0009722Y0098113D02*
X0012278Y0096069D01*
X0013300Y0097091D02*
X0013298Y0097150D01*
X0013293Y0097208D01*
X0013284Y0097266D01*
X0013271Y0097323D01*
X0013255Y0097380D01*
X0013235Y0097435D01*
X0013212Y0097489D01*
X0013186Y0097541D01*
X0013156Y0097592D01*
X0013124Y0097641D01*
X0013088Y0097688D01*
X0013050Y0097732D01*
X0013009Y0097774D01*
X0012965Y0097813D01*
X0012919Y0097850D01*
X0012871Y0097883D01*
X0012821Y0097914D01*
X0012769Y0097941D01*
X0012716Y0097965D01*
X0012661Y0097986D01*
X0013300Y0097091D02*
X0013298Y0097032D01*
X0013293Y0096974D01*
X0013284Y0096916D01*
X0013271Y0096859D01*
X0013255Y0096802D01*
X0013235Y0096747D01*
X0013212Y0096693D01*
X0013186Y0096641D01*
X0013156Y0096590D01*
X0013124Y0096541D01*
X0013088Y0096494D01*
X0013050Y0096450D01*
X0013009Y0096408D01*
X0012965Y0096369D01*
X0012919Y0096332D01*
X0012871Y0096299D01*
X0012821Y0096268D01*
X0012769Y0096241D01*
X0012716Y0096217D01*
X0012661Y0096196D01*
X0011000Y0098369D02*
X0010885Y0098367D01*
X0010771Y0098362D01*
X0010657Y0098353D01*
X0010543Y0098341D01*
X0010429Y0098326D01*
X0010316Y0098307D01*
X0010204Y0098284D01*
X0010092Y0098259D01*
X0009981Y0098229D01*
X0009871Y0098197D01*
X0009762Y0098161D01*
X0009654Y0098122D01*
X0009548Y0098080D01*
X0009443Y0098034D01*
X0009339Y0097986D01*
X0008700Y0097091D02*
X0008702Y0097032D01*
X0008707Y0096974D01*
X0008716Y0096916D01*
X0008729Y0096859D01*
X0008745Y0096802D01*
X0008765Y0096747D01*
X0008788Y0096693D01*
X0008814Y0096641D01*
X0008844Y0096590D01*
X0008876Y0096541D01*
X0008912Y0096494D01*
X0008950Y0096450D01*
X0008991Y0096408D01*
X0009035Y0096369D01*
X0009081Y0096332D01*
X0009129Y0096299D01*
X0009179Y0096268D01*
X0009231Y0096241D01*
X0009284Y0096217D01*
X0009339Y0096196D01*
X0010744Y0093485D02*
X0013300Y0091313D01*
X0009722Y0091314D02*
X0009652Y0091339D01*
X0009583Y0091367D01*
X0009516Y0091398D01*
X0009450Y0091433D01*
X0009387Y0091471D01*
X0009325Y0091513D01*
X0009265Y0091557D01*
X0009208Y0091604D01*
X0009153Y0091654D01*
X0009101Y0091707D01*
X0009051Y0091763D01*
X0009005Y0091820D01*
X0008961Y0091881D01*
X0008920Y0091943D01*
X0008883Y0092007D01*
X0008849Y0092073D01*
X0008818Y0092141D01*
X0008791Y0092210D01*
X0008767Y0092280D01*
X0008746Y0092351D01*
X0008730Y0092424D01*
X0008717Y0092497D01*
X0008707Y0092571D01*
X0008702Y0092645D01*
X0008700Y0092719D01*
X0008702Y0092786D01*
X0008708Y0092853D01*
X0008717Y0092919D01*
X0008731Y0092984D01*
X0008748Y0093049D01*
X0008769Y0093112D01*
X0008794Y0093174D01*
X0008822Y0093235D01*
X0008854Y0093294D01*
X0008889Y0093351D01*
X0008928Y0093406D01*
X0008969Y0093458D01*
X0009014Y0093508D01*
X0009061Y0093555D01*
X0009111Y0093600D01*
X0009163Y0093641D01*
X0009218Y0093680D01*
X0009275Y0093715D01*
X0009334Y0093747D01*
X0009395Y0093775D01*
X0009457Y0093800D01*
X0009520Y0093821D01*
X0009585Y0093838D01*
X0009650Y0093852D01*
X0009716Y0093861D01*
X0009783Y0093867D01*
X0009850Y0093869D01*
X0009850Y0093868D02*
X0009917Y0093866D01*
X0009983Y0093861D01*
X0010049Y0093852D01*
X0010115Y0093839D01*
X0010179Y0093823D01*
X0010243Y0093804D01*
X0010306Y0093781D01*
X0010367Y0093755D01*
X0010427Y0093725D01*
X0010485Y0093692D01*
X0010541Y0093657D01*
X0010595Y0093618D01*
X0010647Y0093576D01*
X0010697Y0093532D01*
X0010744Y0093485D01*
X0011000Y0095813D02*
X0011115Y0095815D01*
X0011229Y0095820D01*
X0011343Y0095829D01*
X0011457Y0095841D01*
X0011571Y0095856D01*
X0011684Y0095875D01*
X0011796Y0095898D01*
X0011908Y0095923D01*
X0012019Y0095953D01*
X0012129Y0095985D01*
X0012238Y0096021D01*
X0012346Y0096060D01*
X0012452Y0096102D01*
X0012557Y0096148D01*
X0012661Y0096196D01*
X0013300Y0100313D02*
X0013300Y0102869D01*
X0013300Y0101591D02*
X0008700Y0101591D01*
X0009722Y0100313D01*
X0009211Y0104813D02*
X0008700Y0104813D01*
X0008700Y0107369D01*
X0013300Y0106091D01*
D14*
X0021000Y0070642D02*
X0036000Y0070642D01*
X0071000Y0070642D02*
X0086000Y0070642D01*
X0121000Y0070642D02*
X0136000Y0070642D01*
X0171000Y0070642D02*
X0186000Y0070642D01*
X0221000Y0070642D02*
X0236000Y0070642D01*
X0271000Y0070642D02*
X0286000Y0070642D01*
X0321000Y0070642D02*
X0336000Y0070642D01*
X0371000Y0070642D02*
X0386000Y0070642D01*
X0546000Y0070642D02*
X0561000Y0070642D01*
X0596000Y0070642D02*
X0611000Y0070642D01*
X0646000Y0070642D02*
X0661000Y0070642D01*
X0696000Y0070642D02*
X0711000Y0070642D01*
X0746000Y0070642D02*
X0761000Y0070642D01*
X0796000Y0070642D02*
X0811000Y0070642D01*
X0846000Y0070642D02*
X0861000Y0070642D01*
X0896000Y0070642D02*
X0911000Y0070642D01*
D15*
X0918500Y0079697D03*
X0918500Y0086587D03*
X0868500Y0086587D03*
X0868500Y0079697D03*
X0818500Y0079697D03*
X0818500Y0086587D03*
X0768500Y0086587D03*
X0768500Y0079697D03*
X0718500Y0079697D03*
X0718500Y0086587D03*
X0668500Y0086587D03*
X0668500Y0079697D03*
X0618500Y0079697D03*
X0618500Y0086587D03*
X0568500Y0086587D03*
X0568500Y0079697D03*
X0393500Y0079697D03*
X0393500Y0086587D03*
X0343500Y0086587D03*
X0343500Y0079697D03*
X0293500Y0079697D03*
X0293500Y0086587D03*
X0243500Y0086587D03*
X0243500Y0079697D03*
X0193500Y0079697D03*
X0193500Y0086587D03*
X0143500Y0086587D03*
X0143500Y0079697D03*
X0093500Y0079697D03*
X0093500Y0086587D03*
X0043500Y0086587D03*
X0043500Y0079697D03*
X0043500Y0114697D03*
X0063500Y0114697D03*
X0063500Y0121587D03*
X0043500Y0121587D03*
X0013500Y0121587D03*
X0013500Y0114697D03*
X0093500Y0114697D03*
X0113500Y0114697D03*
X0143500Y0114697D03*
X0163500Y0114697D03*
X0193500Y0114697D03*
X0213500Y0114697D03*
X0213500Y0121587D03*
X0193500Y0121587D03*
X0163500Y0121587D03*
X0143500Y0121587D03*
X0113500Y0121587D03*
X0093500Y0121587D03*
X0243500Y0121587D03*
X0263500Y0121587D03*
X0293500Y0121587D03*
X0313500Y0121587D03*
X0343500Y0121587D03*
X0363500Y0121587D03*
X0393500Y0121587D03*
X0393500Y0114697D03*
X0363500Y0114697D03*
X0343500Y0114697D03*
X0313500Y0114697D03*
X0293500Y0114697D03*
X0263500Y0114697D03*
X0243500Y0114697D03*
X0492000Y0127697D03*
X0492000Y0134587D03*
X0492000Y0142197D03*
X0492000Y0149087D03*
X0538500Y0121587D03*
X0568500Y0121587D03*
X0588500Y0121587D03*
X0618500Y0121587D03*
X0638500Y0121587D03*
X0668500Y0121587D03*
X0688500Y0121587D03*
X0688500Y0114697D03*
X0668500Y0114697D03*
X0638500Y0114697D03*
X0618500Y0114697D03*
X0588500Y0114697D03*
X0568500Y0114697D03*
X0538500Y0114697D03*
X0718500Y0114697D03*
X0738500Y0114697D03*
X0768500Y0114697D03*
X0788500Y0114697D03*
X0818500Y0114697D03*
X0838500Y0114697D03*
X0838500Y0121587D03*
X0818500Y0121587D03*
X0788500Y0121587D03*
X0768500Y0121587D03*
X0738500Y0121587D03*
X0718500Y0121587D03*
X0868500Y0121587D03*
X0888500Y0121587D03*
X0918500Y0121587D03*
X0918500Y0114697D03*
X0888500Y0114697D03*
X0868500Y0114697D03*
D16*
X0486945Y0100642D03*
X0480055Y0100642D03*
X0469445Y0100642D03*
X0462555Y0100642D03*
X0451945Y0100642D03*
X0445055Y0100642D03*
D17*
X0353500Y0104441D03*
X0353500Y0091843D03*
X0253500Y0091843D03*
X0253500Y0104441D03*
X0153500Y0104441D03*
X0153500Y0091843D03*
X0053500Y0091843D03*
X0053500Y0104441D03*
X0578500Y0104441D03*
X0578500Y0091843D03*
X0678500Y0091843D03*
X0678500Y0104441D03*
X0778500Y0104441D03*
X0778500Y0091843D03*
X0878500Y0091843D03*
X0878500Y0104441D03*
D18*
X0486500Y0090642D02*
X0480500Y0090642D01*
X0469000Y0090642D02*
X0463000Y0090642D01*
X0451500Y0090642D02*
X0445500Y0090642D01*
X0445500Y0070642D02*
X0451500Y0070642D01*
X0463000Y0070642D02*
X0469000Y0070642D01*
X0480500Y0070642D02*
X0486500Y0070642D01*
D19*
X0501344Y0129166D03*
X0501344Y0147118D03*
D20*
X0529252Y0138142D03*
D21*
X0548500Y0138142D03*
X0558500Y0138142D03*
X0558500Y0148142D03*
X0548500Y0148142D03*
X0598500Y0148142D03*
X0608500Y0148142D03*
X0648500Y0148142D03*
X0658500Y0148142D03*
X0698500Y0148142D03*
X0708500Y0148142D03*
X0748500Y0148142D03*
X0758500Y0148142D03*
X0798500Y0148142D03*
X0808500Y0148142D03*
X0808500Y0138142D03*
X0798500Y0138142D03*
X0758500Y0138142D03*
X0748500Y0138142D03*
X0708500Y0138142D03*
X0698500Y0138142D03*
X0658500Y0138142D03*
X0648500Y0138142D03*
X0608500Y0138142D03*
X0598500Y0138142D03*
X0598500Y0128142D03*
X0608500Y0128142D03*
X0648500Y0128142D03*
X0658500Y0128142D03*
X0698500Y0128142D03*
X0708500Y0128142D03*
X0748500Y0128142D03*
X0758500Y0128142D03*
X0798500Y0128142D03*
X0808500Y0128142D03*
X0848500Y0128142D03*
X0858500Y0128142D03*
X0898500Y0128142D03*
X0908500Y0128142D03*
X0908500Y0118142D03*
X0898500Y0118142D03*
X0858500Y0118142D03*
X0848500Y0118142D03*
X0848500Y0108142D03*
X0858500Y0108142D03*
X0898500Y0108142D03*
X0908500Y0108142D03*
X0908500Y0098142D03*
X0898500Y0098142D03*
X0858500Y0098142D03*
X0848500Y0098142D03*
X0808500Y0098142D03*
X0798500Y0098142D03*
X0758500Y0098142D03*
X0748500Y0098142D03*
X0708500Y0098142D03*
X0698500Y0098142D03*
X0658500Y0098142D03*
X0648500Y0098142D03*
X0608500Y0098142D03*
X0598500Y0098142D03*
X0558500Y0098142D03*
X0548500Y0098142D03*
X0548500Y0088142D03*
X0558500Y0088142D03*
X0558500Y0078142D03*
X0548500Y0078142D03*
X0598500Y0078142D03*
X0608500Y0078142D03*
X0648500Y0078142D03*
X0658500Y0078142D03*
X0698500Y0078142D03*
X0708500Y0078142D03*
X0748500Y0078142D03*
X0758500Y0078142D03*
X0798500Y0078142D03*
X0808500Y0078142D03*
X0808500Y0088142D03*
X0798500Y0088142D03*
X0758500Y0088142D03*
X0748500Y0088142D03*
X0708500Y0088142D03*
X0698500Y0088142D03*
X0658500Y0088142D03*
X0648500Y0088142D03*
X0608500Y0088142D03*
X0598500Y0088142D03*
X0598500Y0108142D03*
X0608500Y0108142D03*
X0648500Y0108142D03*
X0658500Y0108142D03*
X0698500Y0108142D03*
X0708500Y0108142D03*
X0748500Y0108142D03*
X0758500Y0108142D03*
X0798500Y0108142D03*
X0808500Y0108142D03*
X0808500Y0118142D03*
X0798500Y0118142D03*
X0758500Y0118142D03*
X0748500Y0118142D03*
X0708500Y0118142D03*
X0698500Y0118142D03*
X0658500Y0118142D03*
X0648500Y0118142D03*
X0608500Y0118142D03*
X0598500Y0118142D03*
X0558500Y0118142D03*
X0548500Y0118142D03*
X0548500Y0108142D03*
X0558500Y0108142D03*
X0486000Y0110642D03*
X0476000Y0110642D03*
X0548500Y0128142D03*
X0558500Y0128142D03*
X0428500Y0138142D03*
X0418500Y0138142D03*
X0383500Y0138142D03*
X0373500Y0138142D03*
X0373500Y0148142D03*
X0383500Y0148142D03*
X0418500Y0148142D03*
X0428500Y0148142D03*
X0333500Y0148142D03*
X0323500Y0148142D03*
X0283500Y0148142D03*
X0273500Y0148142D03*
X0233500Y0148142D03*
X0223500Y0148142D03*
X0183500Y0148142D03*
X0173500Y0148142D03*
X0133500Y0148142D03*
X0123500Y0148142D03*
X0123500Y0138142D03*
X0133500Y0138142D03*
X0173500Y0138142D03*
X0183500Y0138142D03*
X0223500Y0138142D03*
X0233500Y0138142D03*
X0273500Y0138142D03*
X0283500Y0138142D03*
X0323500Y0138142D03*
X0333500Y0138142D03*
X0333500Y0128142D03*
X0323500Y0128142D03*
X0283500Y0128142D03*
X0273500Y0128142D03*
X0233500Y0128142D03*
X0223500Y0128142D03*
X0183500Y0128142D03*
X0173500Y0128142D03*
X0133500Y0128142D03*
X0123500Y0128142D03*
X0083500Y0128142D03*
X0073500Y0128142D03*
X0033500Y0128142D03*
X0023500Y0128142D03*
X0023500Y0118142D03*
X0033500Y0118142D03*
X0073500Y0118142D03*
X0083500Y0118142D03*
X0083500Y0108142D03*
X0073500Y0108142D03*
X0033500Y0108142D03*
X0023500Y0108142D03*
X0023500Y0098142D03*
X0033500Y0098142D03*
X0073500Y0098142D03*
X0083500Y0098142D03*
X0123500Y0098142D03*
X0133500Y0098142D03*
X0173500Y0098142D03*
X0183500Y0098142D03*
X0223500Y0098142D03*
X0233500Y0098142D03*
X0273500Y0098142D03*
X0283500Y0098142D03*
X0323500Y0098142D03*
X0333500Y0098142D03*
X0373500Y0098142D03*
X0383500Y0098142D03*
X0383500Y0088142D03*
X0373500Y0088142D03*
X0373500Y0078142D03*
X0383500Y0078142D03*
X0333500Y0078142D03*
X0323500Y0078142D03*
X0283500Y0078142D03*
X0273500Y0078142D03*
X0233500Y0078142D03*
X0223500Y0078142D03*
X0183500Y0078142D03*
X0173500Y0078142D03*
X0133500Y0078142D03*
X0123500Y0078142D03*
X0123500Y0088142D03*
X0133500Y0088142D03*
X0173500Y0088142D03*
X0183500Y0088142D03*
X0223500Y0088142D03*
X0233500Y0088142D03*
X0273500Y0088142D03*
X0283500Y0088142D03*
X0323500Y0088142D03*
X0333500Y0088142D03*
X0333500Y0108142D03*
X0323500Y0108142D03*
X0283500Y0108142D03*
X0273500Y0108142D03*
X0233500Y0108142D03*
X0223500Y0108142D03*
X0183500Y0108142D03*
X0173500Y0108142D03*
X0133500Y0108142D03*
X0123500Y0108142D03*
X0123500Y0118142D03*
X0133500Y0118142D03*
X0173500Y0118142D03*
X0183500Y0118142D03*
X0223500Y0118142D03*
X0233500Y0118142D03*
X0273500Y0118142D03*
X0283500Y0118142D03*
X0323500Y0118142D03*
X0333500Y0118142D03*
X0373500Y0118142D03*
X0383500Y0118142D03*
X0383500Y0108142D03*
X0373500Y0108142D03*
X0373500Y0128142D03*
X0383500Y0128142D03*
X0083500Y0138142D03*
X0073500Y0138142D03*
X0033500Y0138142D03*
X0023500Y0138142D03*
X0023500Y0148142D03*
X0033500Y0148142D03*
X0073500Y0148142D03*
X0083500Y0148142D03*
X0083500Y0088142D03*
X0073500Y0088142D03*
X0033500Y0088142D03*
X0023500Y0088142D03*
X0023500Y0078142D03*
X0033500Y0078142D03*
X0073500Y0078142D03*
X0083500Y0078142D03*
X0848500Y0078142D03*
X0858500Y0078142D03*
X0898500Y0078142D03*
X0908500Y0078142D03*
X0908500Y0088142D03*
X0898500Y0088142D03*
X0858500Y0088142D03*
X0848500Y0088142D03*
X0848500Y0138142D03*
X0858500Y0138142D03*
X0898500Y0138142D03*
X0908500Y0138142D03*
X0908500Y0148142D03*
X0898500Y0148142D03*
X0858500Y0148142D03*
X0848500Y0148142D03*
D22*
X0466000Y0116489D03*
X0456000Y0116489D03*
X0446000Y0116489D03*
X0446000Y0109796D03*
X0456000Y0109796D03*
X0466000Y0109796D03*
D23*
X0428500Y0095642D03*
X0408500Y0095642D03*
X0503500Y0095642D03*
X0523500Y0095642D03*
X0523500Y0075642D03*
X0503500Y0075642D03*
X0428500Y0075642D03*
X0408500Y0075642D03*
D24*
X0464482Y0131207D02*
X0467518Y0131207D01*
X0467518Y0128171D01*
X0464482Y0128171D01*
X0464482Y0131207D01*
X0464482Y0129471D02*
X0467518Y0129471D01*
X0467518Y0130771D02*
X0464482Y0130771D01*
X0464482Y0138113D02*
X0467518Y0138113D01*
X0467518Y0135077D01*
X0464482Y0135077D01*
X0464482Y0138113D01*
X0464482Y0136377D02*
X0467518Y0136377D01*
X0467518Y0137677D02*
X0464482Y0137677D01*
X0460018Y0135671D02*
X0456982Y0135671D01*
X0456982Y0138707D01*
X0460018Y0138707D01*
X0460018Y0135671D01*
X0460018Y0136971D02*
X0456982Y0136971D01*
X0456982Y0138271D02*
X0460018Y0138271D01*
X0471982Y0135671D02*
X0475018Y0135671D01*
X0471982Y0135671D02*
X0471982Y0138707D01*
X0475018Y0138707D01*
X0475018Y0135671D01*
X0475018Y0136971D02*
X0471982Y0136971D01*
X0471982Y0138271D02*
X0475018Y0138271D01*
X0475018Y0142577D02*
X0471982Y0142577D01*
X0471982Y0145613D01*
X0475018Y0145613D01*
X0475018Y0142577D01*
X0475018Y0143877D02*
X0471982Y0143877D01*
X0471982Y0145177D02*
X0475018Y0145177D01*
X0460018Y0142577D02*
X0456982Y0142577D01*
X0456982Y0145613D01*
X0460018Y0145613D01*
X0460018Y0142577D01*
X0460018Y0143877D02*
X0456982Y0143877D01*
X0456982Y0145177D02*
X0460018Y0145177D01*
D25*
X0466000Y0163142D03*
X0578500Y0163142D03*
X0678500Y0163142D03*
X0778500Y0163142D03*
X0878500Y0163142D03*
X0878500Y0063142D03*
X0778500Y0063142D03*
X0678500Y0063142D03*
X0578500Y0063142D03*
X0353500Y0063142D03*
X0253500Y0063142D03*
X0153500Y0063142D03*
X0053500Y0063142D03*
X0053500Y0163142D03*
X0153500Y0163142D03*
X0253500Y0163142D03*
X0353500Y0163142D03*
M02*
