%
M48
M72
T01C0.01378
T02C0.01575
T03C0.03200
T04C0.04000
T05C0.12205
%
T01
X53500Y78142
X153500Y85642
X253500Y85642
X353500Y85642
X418500Y83742
X456000Y98142
X461000Y118142
X476000Y118142
X578500Y128142
X678500Y118142
X778500Y118142
X878500Y110642
X778500Y85642
X678500Y85642
X578500Y85642
X353500Y128142
X253500Y118142
X153500Y118142
X53500Y110642
X878500Y78142
T02
X474500Y96642
X491500Y103142
X483500Y128142
T03
X23500Y148142
X33500Y148142
X73500Y148142
X83500Y148142
X83500Y138142
X73500Y138142
X33500Y138142
X23500Y138142
X23500Y128142
X33500Y128142
X73500Y128142
X83500Y128142
X123500Y128142
X133500Y128142
X173500Y128142
X183500Y128142
X223500Y128142
X233500Y128142
X273500Y128142
X283500Y128142
X323500Y128142
X333500Y128142
X373500Y128142
X383500Y128142
X383500Y118142
X373500Y118142
X373500Y108142
X383500Y108142
X383500Y98142
X373500Y98142
X333500Y98142
X323500Y98142
X283500Y98142
X273500Y98142
X233500Y98142
X223500Y98142
X183500Y98142
X173500Y98142
X133500Y98142
X123500Y98142
X83500Y98142
X73500Y98142
X33500Y98142
X23500Y98142
X23500Y88142
X33500Y88142
X73500Y88142
X83500Y88142
X83500Y78142
X73500Y78142
X33500Y78142
X23500Y78142
X123500Y78142
X133500Y78142
X173500Y78142
X183500Y78142
X223500Y78142
X233500Y78142
X273500Y78142
X283500Y78142
X323500Y78142
X333500Y78142
X333500Y88142
X323500Y88142
X283500Y88142
X273500Y88142
X233500Y88142
X223500Y88142
X183500Y88142
X173500Y88142
X133500Y88142
X123500Y88142
X123500Y108142
X133500Y108142
X173500Y108142
X183500Y108142
X223500Y108142
X233500Y108142
X273500Y108142
X283500Y108142
X323500Y108142
X333500Y108142
X333500Y118142
X323500Y118142
X283500Y118142
X273500Y118142
X233500Y118142
X223500Y118142
X183500Y118142
X173500Y118142
X133500Y118142
X123500Y118142
X83500Y118142
X73500Y118142
X33500Y118142
X23500Y118142
X23500Y108142
X33500Y108142
X73500Y108142
X83500Y108142
X123500Y138142
X133500Y138142
X173500Y138142
X183500Y138142
X223500Y138142
X233500Y138142
X273500Y138142
X283500Y138142
X323500Y138142
X333500Y138142
X333500Y148142
X323500Y148142
X283500Y148142
X273500Y148142
X233500Y148142
X223500Y148142
X183500Y148142
X173500Y148142
X133500Y148142
X123500Y148142
X373500Y148142
X383500Y148142
X418500Y148142
X428500Y148142
X428500Y138142
X418500Y138142
X383500Y138142
X373500Y138142
X476000Y110642
X486000Y110642
X548500Y108142
X558500Y108142
X558500Y118142
X548500Y118142
X548500Y128142
X558500Y128142
X598500Y128142
X608500Y128142
X648500Y128142
X658500Y128142
X698500Y128142
X708500Y128142
X748500Y128142
X758500Y128142
X798500Y128142
X808500Y128142
X848500Y128142
X858500Y128142
X898500Y128142
X908500Y128142
X908500Y118142
X898500Y118142
X858500Y118142
X848500Y118142
X848500Y108142
X858500Y108142
X898500Y108142
X908500Y108142
X908500Y98142
X898500Y98142
X858500Y98142
X848500Y98142
X808500Y98142
X798500Y98142
X758500Y98142
X748500Y98142
X708500Y98142
X698500Y98142
X658500Y98142
X648500Y98142
X608500Y98142
X598500Y98142
X558500Y98142
X548500Y98142
X548500Y88142
X558500Y88142
X558500Y78142
X548500Y78142
X598500Y78142
X608500Y78142
X648500Y78142
X658500Y78142
X698500Y78142
X708500Y78142
X748500Y78142
X758500Y78142
X798500Y78142
X808500Y78142
X808500Y88142
X798500Y88142
X758500Y88142
X748500Y88142
X708500Y88142
X698500Y88142
X658500Y88142
X648500Y88142
X608500Y88142
X598500Y88142
X598500Y108142
X608500Y108142
X648500Y108142
X658500Y108142
X698500Y108142
X708500Y108142
X748500Y108142
X758500Y108142
X798500Y108142
X808500Y108142
X808500Y118142
X798500Y118142
X758500Y118142
X748500Y118142
X708500Y118142
X698500Y118142
X658500Y118142
X648500Y118142
X608500Y118142
X598500Y118142
X598500Y138142
X608500Y138142
X648500Y138142
X658500Y138142
X698500Y138142
X708500Y138142
X748500Y138142
X758500Y138142
X798500Y138142
X808500Y138142
X808500Y148142
X798500Y148142
X758500Y148142
X748500Y148142
X708500Y148142
X698500Y148142
X658500Y148142
X648500Y148142
X608500Y148142
X598500Y148142
X558500Y148142
X548500Y148142
X548500Y138142
X558500Y138142
X383500Y88142
X373500Y88142
X373500Y78142
X383500Y78142
X848500Y78142
X858500Y78142
X898500Y78142
X908500Y78142
X908500Y88142
X898500Y88142
X858500Y88142
X848500Y88142
X848500Y138142
X858500Y138142
X898500Y138142
X908500Y138142
X908500Y148142
X898500Y148142
X858500Y148142
X848500Y148142
T04
X408500Y95642
X428500Y95642
X448500Y90642
X466000Y90642
X483500Y90642
X503500Y95642
X523500Y95642
X523500Y75642
X503500Y75642
X483500Y70642
X466000Y70642
X448500Y70642
X428500Y75642
X408500Y75642
T05
X53500Y63142
X153500Y63142
X253500Y63142
X353500Y63142
X578500Y63142
X678500Y63142
X778500Y63142
X878500Y63142
X878500Y163142
X778500Y163142
X678500Y163142
X578500Y163142
X466000Y163142
X353500Y163142
X253500Y163142
X153500Y163142
X53500Y163142
M30
